<?xml version="1.0" encoding="us-ascii" standalone="no"?><svg xmlns="http://www.w3.org/2000/svg" xmlns:xlink="http://www.w3.org/1999/xlink" contentStyleType="text/css" height="322px" preserveAspectRatio="none" style="width:250px;height:322px;background:#FFFFFF;" version="1.1" viewBox="0 0 250 322" width="250px" zoomAndPan="magnify"><defs><filter height="300%" id="f1m8n7w99xl6vu" width="300%" x="-1" y="-1"><feGaussianBlur result="blurOut" stdDeviation="2.0"/><feColorMatrix in="blurOut" result="blurOut2" type="matrix" values="0 0 0 0 0 0 0 0 0 0 0 0 0 0 0 0 0 0 .4 0"/><feOffset dx="4.0" dy="4.0" in="blurOut2" result="blurOut3"/><feBlend in="SourceGraphic" in2="blurOut3" mode="normal"/></filter></defs><g><text fill="#000000" font-family="sans-serif" font-size="14" font-weight="bold" lengthAdjust="spacing" textLength="132" x="52" y="22.9951">Connect 4 Game</text><!--class Game--><g id="elem_Game"><rect codeLine="3" fill="#FEFECE" filter="url(#f1m8n7w99xl6vu)" height="48" id="Game" style="stroke:#A80036;stroke-width:1.0;" width="74" x="55" y="44.2969"/><ellipse cx="70" cy="60.2969" fill="#ADD1B2" rx="11" ry="11" style="stroke:#A80036;stroke-width:1.0;"/><path d="M72.3438,55.9688 C71.4063,55.5313 70.8125,55.3906 69.9375,55.3906 C67.3125,55.3906 65.3125,57.4688 65.3125,60.1875 L65.3125,61.3125 C65.3125,63.8906 67.4219,65.7813 70.3125,65.7813 C71.5313,65.7813 72.6875,65.4844 73.4375,64.9375 C74.0156,64.5313 74.3438,64.0781 74.3438,63.6875 C74.3438,63.2344 73.9531,62.8438 73.4844,62.8438 C73.2656,62.8438 73.0625,62.9219 72.875,63.1094 C72.4219,63.5938 72.4219,63.5938 72.2344,63.6875 C71.8125,63.9531 71.125,64.0781 70.3594,64.0781 C68.3125,64.0781 67.0156,62.9844 67.0156,61.2813 L67.0156,60.1875 C67.0156,58.4063 68.2656,57.0938 70,57.0938 C70.5781,57.0938 71.1875,57.25 71.6563,57.5 C72.1406,57.7813 72.3125,58 72.4063,58.4063 C72.4688,58.8125 72.5,58.9375 72.6406,59.0625 C72.7813,59.2031 73.0156,59.3125 73.2344,59.3125 C73.5,59.3125 73.7656,59.1719 73.9375,58.9531 C74.0469,58.7969 74.0781,58.6094 74.0781,58.1875 L74.0781,56.7656 C74.0781,56.3281 74.0625,56.2031 73.9688,56.0469 C73.8125,55.7813 73.5313,55.6406 73.2344,55.6406 C72.9375,55.6406 72.7344,55.7344 72.5156,56.0469 L72.3438,55.9688 Z " fill="#000000"/><text fill="#000000" font-family="sans-serif" font-size="14" lengthAdjust="spacing" textLength="42" x="84" y="65.1436">Game</text><line style="stroke:#A80036;stroke-width:1.0;" x1="56" x2="128" y1="76.2969" y2="76.2969"/><line style="stroke:#A80036;stroke-width:1.0;" x1="56" x2="128" y1="84.2969" y2="84.2969"/></g><!--class Player--><g id="elem_Player"><rect codeLine="4" fill="#FEFECE" filter="url(#f1m8n7w99xl6vu)" height="48" id="Player" style="stroke:#A80036;stroke-width:1.0;" width="76" x="160" y="260.2969"/><ellipse cx="175" cy="276.2969" fill="#ADD1B2" rx="11" ry="11" style="stroke:#A80036;stroke-width:1.0;"/><path d="M177.3438,271.9688 C176.4063,271.5313 175.8125,271.3906 174.9375,271.3906 C172.3125,271.3906 170.3125,273.4688 170.3125,276.1875 L170.3125,277.3125 C170.3125,279.8906 172.4219,281.7813 175.3125,281.7813 C176.5313,281.7813 177.6875,281.4844 178.4375,280.9375 C179.0156,280.5313 179.3438,280.0781 179.3438,279.6875 C179.3438,279.2344 178.9531,278.8438 178.4844,278.8438 C178.2656,278.8438 178.0625,278.9219 177.875,279.1094 C177.4219,279.5938 177.4219,279.5938 177.2344,279.6875 C176.8125,279.9531 176.125,280.0781 175.3594,280.0781 C173.3125,280.0781 172.0156,278.9844 172.0156,277.2813 L172.0156,276.1875 C172.0156,274.4063 173.2656,273.0938 175,273.0938 C175.5781,273.0938 176.1875,273.25 176.6563,273.5 C177.1406,273.7813 177.3125,274 177.4063,274.4063 C177.4688,274.8125 177.5,274.9375 177.6406,275.0625 C177.7813,275.2031 178.0156,275.3125 178.2344,275.3125 C178.5,275.3125 178.7656,275.1719 178.9375,274.9531 C179.0469,274.7969 179.0781,274.6094 179.0781,274.1875 L179.0781,272.7656 C179.0781,272.3281 179.0625,272.2031 178.9688,272.0469 C178.8125,271.7813 178.5313,271.6406 178.2344,271.6406 C177.9375,271.6406 177.7344,271.7344 177.5156,272.0469 L177.3438,271.9688 Z " fill="#000000"/><text fill="#000000" font-family="sans-serif" font-size="14" lengthAdjust="spacing" textLength="44" x="189" y="281.1436">Player</text><line style="stroke:#A80036;stroke-width:1.0;" x1="161" x2="235" y1="292.2969" y2="292.2969"/><line style="stroke:#A80036;stroke-width:1.0;" x1="161" x2="235" y1="300.2969" y2="300.2969"/></g><!--class Board--><g id="elem_Board"><rect codeLine="5" fill="#FEFECE" filter="url(#f1m8n7w99xl6vu)" height="48" id="Board" style="stroke:#A80036;stroke-width:1.0;" width="74" x="7" y="260.2969"/><ellipse cx="22" cy="276.2969" fill="#ADD1B2" rx="11" ry="11" style="stroke:#A80036;stroke-width:1.0;"/><path d="M24.3438,271.9688 C23.4063,271.5313 22.8125,271.3906 21.9375,271.3906 C19.3125,271.3906 17.3125,273.4688 17.3125,276.1875 L17.3125,277.3125 C17.3125,279.8906 19.4219,281.7813 22.3125,281.7813 C23.5313,281.7813 24.6875,281.4844 25.4375,280.9375 C26.0156,280.5313 26.3438,280.0781 26.3438,279.6875 C26.3438,279.2344 25.9531,278.8438 25.4844,278.8438 C25.2656,278.8438 25.0625,278.9219 24.875,279.1094 C24.4219,279.5938 24.4219,279.5938 24.2344,279.6875 C23.8125,279.9531 23.125,280.0781 22.3594,280.0781 C20.3125,280.0781 19.0156,278.9844 19.0156,277.2813 L19.0156,276.1875 C19.0156,274.4063 20.2656,273.0938 22,273.0938 C22.5781,273.0938 23.1875,273.25 23.6563,273.5 C24.1406,273.7813 24.3125,274 24.4063,274.4063 C24.4688,274.8125 24.5,274.9375 24.6406,275.0625 C24.7813,275.2031 25.0156,275.3125 25.2344,275.3125 C25.5,275.3125 25.7656,275.1719 25.9375,274.9531 C26.0469,274.7969 26.0781,274.6094 26.0781,274.1875 L26.0781,272.7656 C26.0781,272.3281 26.0625,272.2031 25.9688,272.0469 C25.8125,271.7813 25.5313,271.6406 25.2344,271.6406 C24.9375,271.6406 24.7344,271.7344 24.5156,272.0469 L24.3438,271.9688 Z " fill="#000000"/><text fill="#000000" font-family="sans-serif" font-size="14" lengthAdjust="spacing" textLength="42" x="36" y="281.1436">Board</text><line style="stroke:#A80036;stroke-width:1.0;" x1="8" x2="80" y1="292.2969" y2="292.2969"/><line style="stroke:#A80036;stroke-width:1.0;" x1="8" x2="80" y1="300.2969" y2="300.2969"/></g><!--class Turn--><g id="elem_Turn"><rect codeLine="6" fill="#FEFECE" filter="url(#f1m8n7w99xl6vu)" height="48" id="Turn" style="stroke:#A80036;stroke-width:1.0;" width="64" x="166" y="152.2969"/><ellipse cx="181" cy="168.2969" fill="#ADD1B2" rx="11" ry="11" style="stroke:#A80036;stroke-width:1.0;"/><path d="M183.3438,163.9688 C182.4063,163.5313 181.8125,163.3906 180.9375,163.3906 C178.3125,163.3906 176.3125,165.4688 176.3125,168.1875 L176.3125,169.3125 C176.3125,171.8906 178.4219,173.7813 181.3125,173.7813 C182.5313,173.7813 183.6875,173.4844 184.4375,172.9375 C185.0156,172.5313 185.3438,172.0781 185.3438,171.6875 C185.3438,171.2344 184.9531,170.8438 184.4844,170.8438 C184.2656,170.8438 184.0625,170.9219 183.875,171.1094 C183.4219,171.5938 183.4219,171.5938 183.2344,171.6875 C182.8125,171.9531 182.125,172.0781 181.3594,172.0781 C179.3125,172.0781 178.0156,170.9844 178.0156,169.2813 L178.0156,168.1875 C178.0156,166.4063 179.2656,165.0938 181,165.0938 C181.5781,165.0938 182.1875,165.25 182.6563,165.5 C183.1406,165.7813 183.3125,166 183.4063,166.4063 C183.4688,166.8125 183.5,166.9375 183.6406,167.0625 C183.7813,167.2031 184.0156,167.3125 184.2344,167.3125 C184.5,167.3125 184.7656,167.1719 184.9375,166.9531 C185.0469,166.7969 185.0781,166.6094 185.0781,166.1875 L185.0781,164.7656 C185.0781,164.3281 185.0625,164.2031 184.9688,164.0469 C184.8125,163.7813 184.5313,163.6406 184.2344,163.6406 C183.9375,163.6406 183.7344,163.7344 183.5156,164.0469 L183.3438,163.9688 Z " fill="#000000"/><text fill="#000000" font-family="sans-serif" font-size="14" lengthAdjust="spacing" textLength="32" x="195" y="173.1436">Turn</text><line style="stroke:#A80036;stroke-width:1.0;" x1="167" x2="229" y1="184.2969" y2="184.2969"/><line style="stroke:#A80036;stroke-width:1.0;" x1="167" x2="229" y1="192.2969" y2="192.2969"/></g><!--class Result--><g id="elem_Result"><rect codeLine="7" fill="#FEFECE" filter="url(#f1m8n7w99xl6vu)" height="48" id="Result" style="stroke:#A80036;stroke-width:1.0;" width="77" x="53.5" y="152.2969"/><ellipse cx="68.5" cy="168.2969" fill="#ADD1B2" rx="11" ry="11" style="stroke:#A80036;stroke-width:1.0;"/><path d="M70.8438,163.9688 C69.9063,163.5313 69.3125,163.3906 68.4375,163.3906 C65.8125,163.3906 63.8125,165.4688 63.8125,168.1875 L63.8125,169.3125 C63.8125,171.8906 65.9219,173.7813 68.8125,173.7813 C70.0313,173.7813 71.1875,173.4844 71.9375,172.9375 C72.5156,172.5313 72.8438,172.0781 72.8438,171.6875 C72.8438,171.2344 72.4531,170.8438 71.9844,170.8438 C71.7656,170.8438 71.5625,170.9219 71.375,171.1094 C70.9219,171.5938 70.9219,171.5938 70.7344,171.6875 C70.3125,171.9531 69.625,172.0781 68.8594,172.0781 C66.8125,172.0781 65.5156,170.9844 65.5156,169.2813 L65.5156,168.1875 C65.5156,166.4063 66.7656,165.0938 68.5,165.0938 C69.0781,165.0938 69.6875,165.25 70.1563,165.5 C70.6406,165.7813 70.8125,166 70.9063,166.4063 C70.9688,166.8125 71,166.9375 71.1406,167.0625 C71.2813,167.2031 71.5156,167.3125 71.7344,167.3125 C72,167.3125 72.2656,167.1719 72.4375,166.9531 C72.5469,166.7969 72.5781,166.6094 72.5781,166.1875 L72.5781,164.7656 C72.5781,164.3281 72.5625,164.2031 72.4688,164.0469 C72.3125,163.7813 72.0313,163.6406 71.7344,163.6406 C71.4375,163.6406 71.2344,163.7344 71.0156,164.0469 L70.8438,163.9688 Z " fill="#000000"/><text fill="#000000" font-family="sans-serif" font-size="14" lengthAdjust="spacing" textLength="45" x="82.5" y="173.1436">Result</text><line style="stroke:#A80036;stroke-width:1.0;" x1="54.5" x2="129.5" y1="184.2969" y2="184.2969"/><line style="stroke:#A80036;stroke-width:1.0;" x1="54.5" x2="129.5" y1="192.2969" y2="192.2969"/></g><!--reverse link Game to Board--><g id="link_Game_Board"><path codeLine="8" d="M63.2836,101.634 C50.45,117.28 42.8625,129.8559 36,152.2969 C24.8724,188.6849 31.6673,233.3455 37.7367,260.0003 " fill="none" id="Game-backto-Board" style="stroke:#A80036;stroke-width:1.0;"/><polygon fill="#A80036" points="70.8939,92.3559,63.996,94.4581,63.2836,101.634,70.1814,99.5317,70.8939,92.3559" style="stroke:#A80036;stroke-width:1.0;"/></g><!--reverse link Game to Turn--><g id="link_Game_Turn"><path codeLine="9" d="M123.4853,100.7822 C141.1433,118.4402 156.941,134.2379 174.678,151.9749 " fill="none" id="Game-backto-Turn" style="stroke:#A80036;stroke-width:1.0;"/><polygon fill="#A80036" points="115,92.2969,116.4142,99.3679,123.4853,100.7822,122.0711,93.7111,115,92.2969" style="stroke:#A80036;stroke-width:1.0;"/></g><!--reverse link Game to Result--><g id="link_Game_Result"><path codeLine="10" d="M92,104.2969 C92,121.9549 92,134.2379 92,151.9749 " fill="none" id="Game-backto-Result" style="stroke:#A80036;stroke-width:1.0;"/><polygon fill="#A80036" points="92,92.2969,88,98.2969,92,104.2969,96,98.2969,92,92.2969" style="stroke:#A80036;stroke-width:1.0;"/></g><!--reverse link Result to Board--><g id="link_Result_Board"><path codeLine="11" d="M76.6347,211.2284 C68.6387,228.8868 62.5929,242.2377 54.5607,259.9753 " fill="none" id="Result-backto-Board" style="stroke:#A80036;stroke-width:1.0;"/><polygon fill="#A80036" points="81.5847,200.2969,75.4659,204.1126,76.6347,211.2284,82.7536,207.4126,81.5847,200.2969" style="stroke:#A80036;stroke-width:1.0;"/></g><!--reverse link Turn to Player--><g id="link_Turn_Player"><path codeLine="12" d="M198,212.2969 C198,229.9553 198,242.2377 198,259.9753 " fill="none" id="Turn-backto-Player" style="stroke:#A80036;stroke-width:1.0;"/><polygon fill="#A80036" points="198,200.2969,194,206.2969,198,212.2969,202,206.2969,198,200.2969" style="stroke:#A80036;stroke-width:1.0;"/></g><!--SRC=[AyxEp5CeoYzEvIh9BCb9LN3EpyjBJIvHC55mJynDvKhEIImkHcO6v2HMfXP1EKxvYKKfK7P8QL4Ub1cKMboQKy85qgMWfQiBLGRdWbN2UL3540f9EKWLc0kn4G00]--></g></svg>