<?xml version="1.0" encoding="us-ascii" standalone="no"?><svg xmlns="http://www.w3.org/2000/svg" xmlns:xlink="http://www.w3.org/1999/xlink" contentStyleType="text/css" height="747px" preserveAspectRatio="none" style="width:832px;height:747px;background:#FFFFFF;" version="1.1" viewBox="0 0 832 747" width="832px" zoomAndPan="magnify"><defs/><g><text fill="#000000" font-family="sans-serif" font-size="14" font-weight="bold" lengthAdjust="spacing" textLength="130" x="344.25" y="22.9951">Connect 4 Game</text><!--class Connect4--><g id="elem_Connect4"><rect codeLine="3" fill="#F1F1F1" height="48" id="Connect4" rx="2.5" ry="2.5" style="stroke:#181818;stroke-width:0.5;" width="100" x="392.5" y="44.2969"/><ellipse cx="407.5" cy="60.2969" fill="#ADD1B2" rx="11" ry="11" style="stroke:#181818;stroke-width:1.0;"/><path d="M410.4688,65.9375 Q409.8906,66.2344 409.25,66.375 Q408.6094,66.5313 407.9063,66.5313 Q405.4063,66.5313 404.0781,64.8906 Q402.7656,63.2344 402.7656,60.1094 Q402.7656,56.9844 404.0781,55.3281 Q405.4063,53.6719 407.9063,53.6719 Q408.6094,53.6719 409.25,53.8281 Q409.9063,53.9844 410.4688,54.2813 L410.4688,57 Q409.8438,56.4219 409.25,56.1563 Q408.6563,55.875 408.0313,55.875 Q406.6875,55.875 406,56.9531 Q405.3125,58.0156 405.3125,60.1094 Q405.3125,62.2031 406,63.2813 Q406.6875,64.3438 408.0313,64.3438 Q408.6563,64.3438 409.25,64.0781 Q409.8438,63.7969 410.4688,63.2188 L410.4688,65.9375 Z " fill="#000000"/><text fill="#000000" font-family="sans-serif" font-size="14" lengthAdjust="spacing" textLength="68" x="421.5" y="65.1436">Connect4</text><line style="stroke:#181818;stroke-width:0.5;" x1="393.5" x2="491.5" y1="76.2969" y2="76.2969"/><line style="stroke:#181818;stroke-width:0.5;" x1="393.5" x2="491.5" y1="84.2969" y2="84.2969"/></g><!--class GameController--><g id="elem_GameController"><rect codeLine="4" fill="#F1F1F1" height="48" id="GameController" rx="2.5" ry="2.5" style="stroke:#181818;stroke-width:0.5;" width="146" x="98.5" y="152.2969"/><ellipse cx="113.5" cy="168.2969" fill="#ADD1B2" rx="11" ry="11" style="stroke:#181818;stroke-width:1.0;"/><path d="M116.4688,173.9375 Q115.8906,174.2344 115.25,174.375 Q114.6094,174.5313 113.9063,174.5313 Q111.4063,174.5313 110.0781,172.8906 Q108.7656,171.2344 108.7656,168.1094 Q108.7656,164.9844 110.0781,163.3281 Q111.4063,161.6719 113.9063,161.6719 Q114.6094,161.6719 115.25,161.8281 Q115.9063,161.9844 116.4688,162.2813 L116.4688,165 Q115.8438,164.4219 115.25,164.1563 Q114.6563,163.875 114.0313,163.875 Q112.6875,163.875 112,164.9531 Q111.3125,166.0156 111.3125,168.1094 Q111.3125,170.2031 112,171.2813 Q112.6875,172.3438 114.0313,172.3438 Q114.6563,172.3438 115.25,172.0781 Q115.8438,171.7969 116.4688,171.2188 L116.4688,173.9375 Z " fill="#000000"/><text fill="#000000" font-family="sans-serif" font-size="14" lengthAdjust="spacing" textLength="114" x="127.5" y="173.1436">GameController</text><line style="stroke:#181818;stroke-width:0.5;" x1="99.5" x2="243.5" y1="184.2969" y2="184.2969"/><line style="stroke:#181818;stroke-width:0.5;" x1="99.5" x2="243.5" y1="192.2969" y2="192.2969"/></g><!--class Game--><g id="elem_Game"><rect codeLine="5" fill="#F1F1F1" height="48" id="Game" rx="2.5" ry="2.5" style="stroke:#181818;stroke-width:0.5;" width="75" x="527" y="368.2969"/><ellipse cx="542" cy="384.2969" fill="#ADD1B2" rx="11" ry="11" style="stroke:#181818;stroke-width:1.0;"/><path d="M544.9688,389.9375 Q544.3906,390.2344 543.75,390.375 Q543.1094,390.5313 542.4063,390.5313 Q539.9063,390.5313 538.5781,388.8906 Q537.2656,387.2344 537.2656,384.1094 Q537.2656,380.9844 538.5781,379.3281 Q539.9063,377.6719 542.4063,377.6719 Q543.1094,377.6719 543.75,377.8281 Q544.4063,377.9844 544.9688,378.2813 L544.9688,381 Q544.3438,380.4219 543.75,380.1563 Q543.1563,379.875 542.5313,379.875 Q541.1875,379.875 540.5,380.9531 Q539.8125,382.0156 539.8125,384.1094 Q539.8125,386.2031 540.5,387.2813 Q541.1875,388.3438 542.5313,388.3438 Q543.1563,388.3438 543.75,388.0781 Q544.3438,387.7969 544.9688,387.2188 L544.9688,389.9375 Z " fill="#000000"/><text fill="#000000" font-family="sans-serif" font-size="14" lengthAdjust="spacing" textLength="43" x="556" y="389.1436">Game</text><line style="stroke:#181818;stroke-width:0.5;" x1="528" x2="601" y1="400.2969" y2="400.2969"/><line style="stroke:#181818;stroke-width:0.5;" x1="528" x2="601" y1="408.2969" y2="408.2969"/></g><!--class View--><g id="elem_View"><rect codeLine="6" fill="#F1F1F1" height="48" id="View" rx="2.5" ry="2.5" style="stroke:#181818;stroke-width:0.5;" width="66" x="539.5" y="152.2969"/><ellipse cx="554.5" cy="168.2969" fill="#ADD1B2" rx="11" ry="11" style="stroke:#181818;stroke-width:1.0;"/><path d="M557.4688,173.9375 Q556.8906,174.2344 556.25,174.375 Q555.6094,174.5313 554.9063,174.5313 Q552.4063,174.5313 551.0781,172.8906 Q549.7656,171.2344 549.7656,168.1094 Q549.7656,164.9844 551.0781,163.3281 Q552.4063,161.6719 554.9063,161.6719 Q555.6094,161.6719 556.25,161.8281 Q556.9063,161.9844 557.4688,162.2813 L557.4688,165 Q556.8438,164.4219 556.25,164.1563 Q555.6563,163.875 555.0313,163.875 Q553.6875,163.875 553,164.9531 Q552.3125,166.0156 552.3125,168.1094 Q552.3125,170.2031 553,171.2813 Q553.6875,172.3438 555.0313,172.3438 Q555.6563,172.3438 556.25,172.0781 Q556.8438,171.7969 557.4688,171.2188 L557.4688,173.9375 Z " fill="#000000"/><text fill="#000000" font-family="sans-serif" font-size="14" lengthAdjust="spacing" textLength="34" x="568.5" y="173.1436">View</text><line style="stroke:#181818;stroke-width:0.5;" x1="540.5" x2="604.5" y1="184.2969" y2="184.2969"/><line style="stroke:#181818;stroke-width:0.5;" x1="540.5" x2="604.5" y1="192.2969" y2="192.2969"/></g><!--class StartView--><g id="elem_StartView"><rect codeLine="7" fill="#F1F1F1" height="48" id="StartView" rx="2.5" ry="2.5" style="stroke:#181818;stroke-width:0.5;" width="100" x="566.5" y="260.2969"/><ellipse cx="581.5" cy="276.2969" fill="#ADD1B2" rx="11" ry="11" style="stroke:#181818;stroke-width:1.0;"/><path d="M584.4688,281.9375 Q583.8906,282.2344 583.25,282.375 Q582.6094,282.5313 581.9063,282.5313 Q579.4063,282.5313 578.0781,280.8906 Q576.7656,279.2344 576.7656,276.1094 Q576.7656,272.9844 578.0781,271.3281 Q579.4063,269.6719 581.9063,269.6719 Q582.6094,269.6719 583.25,269.8281 Q583.9063,269.9844 584.4688,270.2813 L584.4688,273 Q583.8438,272.4219 583.25,272.1563 Q582.6563,271.875 582.0313,271.875 Q580.6875,271.875 580,272.9531 Q579.3125,274.0156 579.3125,276.1094 Q579.3125,278.2031 580,279.2813 Q580.6875,280.3438 582.0313,280.3438 Q582.6563,280.3438 583.25,280.0781 Q583.8438,279.7969 584.4688,279.2188 L584.4688,281.9375 Z " fill="#000000"/><text fill="#000000" font-family="sans-serif" font-size="14" lengthAdjust="spacing" textLength="68" x="595.5" y="281.1436">StartView</text><line style="stroke:#181818;stroke-width:0.5;" x1="567.5" x2="665.5" y1="292.2969" y2="292.2969"/><line style="stroke:#181818;stroke-width:0.5;" x1="567.5" x2="665.5" y1="300.2969" y2="300.2969"/></g><!--class ResumeView--><g id="elem_ResumeView"><rect codeLine="8" fill="#F1F1F1" height="48" id="ResumeView" rx="2.5" ry="2.5" style="stroke:#181818;stroke-width:0.5;" width="124" x="701.5" y="260.2969"/><ellipse cx="716.5" cy="276.2969" fill="#ADD1B2" rx="11" ry="11" style="stroke:#181818;stroke-width:1.0;"/><path d="M719.4688,281.9375 Q718.8906,282.2344 718.25,282.375 Q717.6094,282.5313 716.9063,282.5313 Q714.4063,282.5313 713.0781,280.8906 Q711.7656,279.2344 711.7656,276.1094 Q711.7656,272.9844 713.0781,271.3281 Q714.4063,269.6719 716.9063,269.6719 Q717.6094,269.6719 718.25,269.8281 Q718.9063,269.9844 719.4688,270.2813 L719.4688,273 Q718.8438,272.4219 718.25,272.1563 Q717.6563,271.875 717.0313,271.875 Q715.6875,271.875 715,272.9531 Q714.3125,274.0156 714.3125,276.1094 Q714.3125,278.2031 715,279.2813 Q715.6875,280.3438 717.0313,280.3438 Q717.6563,280.3438 718.25,280.0781 Q718.8438,279.7969 719.4688,279.2188 L719.4688,281.9375 Z " fill="#000000"/><text fill="#000000" font-family="sans-serif" font-size="14" lengthAdjust="spacing" textLength="92" x="730.5" y="281.1436">ResumeView</text><line style="stroke:#181818;stroke-width:0.5;" x1="702.5" x2="824.5" y1="292.2969" y2="292.2969"/><line style="stroke:#181818;stroke-width:0.5;" x1="702.5" x2="824.5" y1="300.2969" y2="300.2969"/></g><!--class BoardView--><g id="elem_BoardView"><rect codeLine="9" fill="#F1F1F1" height="48" id="BoardView" rx="2.5" ry="2.5" style="stroke:#181818;stroke-width:0.5;" width="109" x="7" y="260.2969"/><ellipse cx="22" cy="276.2969" fill="#ADD1B2" rx="11" ry="11" style="stroke:#181818;stroke-width:1.0;"/><path d="M24.9688,281.9375 Q24.3906,282.2344 23.75,282.375 Q23.1094,282.5313 22.4063,282.5313 Q19.9063,282.5313 18.5781,280.8906 Q17.2656,279.2344 17.2656,276.1094 Q17.2656,272.9844 18.5781,271.3281 Q19.9063,269.6719 22.4063,269.6719 Q23.1094,269.6719 23.75,269.8281 Q24.4063,269.9844 24.9688,270.2813 L24.9688,273 Q24.3438,272.4219 23.75,272.1563 Q23.1563,271.875 22.5313,271.875 Q21.1875,271.875 20.5,272.9531 Q19.8125,274.0156 19.8125,276.1094 Q19.8125,278.2031 20.5,279.2813 Q21.1875,280.3438 22.5313,280.3438 Q23.1563,280.3438 23.75,280.0781 Q24.3438,279.7969 24.9688,279.2188 L24.9688,281.9375 Z " fill="#000000"/><text fill="#000000" font-family="sans-serif" font-size="14" lengthAdjust="spacing" textLength="77" x="36" y="281.1436">BoardView</text><line style="stroke:#181818;stroke-width:0.5;" x1="8" x2="115" y1="292.2969" y2="292.2969"/><line style="stroke:#181818;stroke-width:0.5;" x1="8" x2="115" y1="300.2969" y2="300.2969"/></g><!--class TurnView--><g id="elem_TurnView"><rect codeLine="10" fill="#F1F1F1" height="48" id="TurnView" rx="2.5" ry="2.5" style="stroke:#181818;stroke-width:0.5;" width="99" x="274" y="260.2969"/><ellipse cx="289" cy="276.2969" fill="#ADD1B2" rx="11" ry="11" style="stroke:#181818;stroke-width:1.0;"/><path d="M291.9688,281.9375 Q291.3906,282.2344 290.75,282.375 Q290.1094,282.5313 289.4063,282.5313 Q286.9063,282.5313 285.5781,280.8906 Q284.2656,279.2344 284.2656,276.1094 Q284.2656,272.9844 285.5781,271.3281 Q286.9063,269.6719 289.4063,269.6719 Q290.1094,269.6719 290.75,269.8281 Q291.4063,269.9844 291.9688,270.2813 L291.9688,273 Q291.3438,272.4219 290.75,272.1563 Q290.1563,271.875 289.5313,271.875 Q288.1875,271.875 287.5,272.9531 Q286.8125,274.0156 286.8125,276.1094 Q286.8125,278.2031 287.5,279.2813 Q288.1875,280.3438 289.5313,280.3438 Q290.1563,280.3438 290.75,280.0781 Q291.3438,279.7969 291.9688,279.2188 L291.9688,281.9375 Z " fill="#000000"/><text fill="#000000" font-family="sans-serif" font-size="14" lengthAdjust="spacing" textLength="67" x="303" y="281.1436">TurnView</text><line style="stroke:#181818;stroke-width:0.5;" x1="275" x2="372" y1="292.2969" y2="292.2969"/><line style="stroke:#181818;stroke-width:0.5;" x1="275" x2="372" y1="300.2969" y2="300.2969"/></g><!--class TurnVisitor--><g id="elem_TurnVisitor"><rect codeLine="19" fill="#F1F1F1" height="48" id="TurnVisitor" rx="2.5" ry="2.5" style="stroke:#181818;stroke-width:0.5;" width="110" x="279.5" y="152.2969"/><ellipse cx="294.5" cy="168.2969" fill="#B4A7E5" rx="11" ry="11" style="stroke:#181818;stroke-width:1.0;"/><path d="M290.4219,164.0625 L290.4219,161.9063 L297.8125,161.9063 L297.8125,164.0625 L295.3438,164.0625 L295.3438,172.1406 L297.8125,172.1406 L297.8125,174.2969 L290.4219,174.2969 L290.4219,172.1406 L292.8906,172.1406 L292.8906,164.0625 L290.4219,164.0625 Z " fill="#000000"/><text fill="#000000" font-family="sans-serif" font-size="14" font-style="italic" lengthAdjust="spacing" textLength="78" x="308.5" y="173.1436">TurnVisitor</text><line style="stroke:#181818;stroke-width:0.5;" x1="280.5" x2="388.5" y1="184.2969" y2="184.2969"/><line style="stroke:#181818;stroke-width:0.5;" x1="280.5" x2="388.5" y1="192.2969" y2="192.2969"/></g><!--class HumanPlayer--><g id="elem_HumanPlayer"><rect codeLine="11" fill="#F1F1F1" height="48" id="HumanPlayer" rx="2.5" ry="2.5" style="stroke:#181818;stroke-width:0.5;" width="128" x="45.5" y="476.2969"/><ellipse cx="60.5" cy="492.2969" fill="#ADD1B2" rx="11" ry="11" style="stroke:#181818;stroke-width:1.0;"/><path d="M63.4688,497.9375 Q62.8906,498.2344 62.25,498.375 Q61.6094,498.5313 60.9063,498.5313 Q58.4063,498.5313 57.0781,496.8906 Q55.7656,495.2344 55.7656,492.1094 Q55.7656,488.9844 57.0781,487.3281 Q58.4063,485.6719 60.9063,485.6719 Q61.6094,485.6719 62.25,485.8281 Q62.9063,485.9844 63.4688,486.2813 L63.4688,489 Q62.8438,488.4219 62.25,488.1563 Q61.6563,487.875 61.0313,487.875 Q59.6875,487.875 59,488.9531 Q58.3125,490.0156 58.3125,492.1094 Q58.3125,494.2031 59,495.2813 Q59.6875,496.3438 61.0313,496.3438 Q61.6563,496.3438 62.25,496.0781 Q62.8438,495.7969 63.4688,495.2188 L63.4688,497.9375 Z " fill="#000000"/><text fill="#000000" font-family="sans-serif" font-size="14" lengthAdjust="spacing" textLength="96" x="74.5" y="497.1436">HumanPlayer</text><line style="stroke:#181818;stroke-width:0.5;" x1="46.5" x2="172.5" y1="508.2969" y2="508.2969"/><line style="stroke:#181818;stroke-width:0.5;" x1="46.5" x2="172.5" y1="516.2969" y2="516.2969"/></g><!--class Player--><g id="elem_Player"><rect codeLine="18" fill="#F1F1F1" height="48" id="Player" rx="2.5" ry="2.5" style="stroke:#181818;stroke-width:0.5;" width="76" x="145.5" y="368.2969"/><ellipse cx="160.5" cy="384.2969" fill="#B4A7E5" rx="11" ry="11" style="stroke:#181818;stroke-width:1.0;"/><path d="M156.4219,380.0625 L156.4219,377.9063 L163.8125,377.9063 L163.8125,380.0625 L161.3438,380.0625 L161.3438,388.1406 L163.8125,388.1406 L163.8125,390.2969 L156.4219,390.2969 L156.4219,388.1406 L158.8906,388.1406 L158.8906,380.0625 L156.4219,380.0625 Z " fill="#000000"/><text fill="#000000" font-family="sans-serif" font-size="14" font-style="italic" lengthAdjust="spacing" textLength="44" x="174.5" y="389.1436">Player</text><line style="stroke:#181818;stroke-width:0.5;" x1="146.5" x2="220.5" y1="400.2969" y2="400.2969"/><line style="stroke:#181818;stroke-width:0.5;" x1="146.5" x2="220.5" y1="408.2969" y2="408.2969"/></g><!--class BotPlayer--><g id="elem_BotPlayer"><rect codeLine="12" fill="#F1F1F1" height="48" id="BotPlayer" rx="2.5" ry="2.5" style="stroke:#181818;stroke-width:0.5;" width="100" x="208.5" y="476.2969"/><ellipse cx="223.5" cy="492.2969" fill="#ADD1B2" rx="11" ry="11" style="stroke:#181818;stroke-width:1.0;"/><path d="M226.4688,497.9375 Q225.8906,498.2344 225.25,498.375 Q224.6094,498.5313 223.9063,498.5313 Q221.4063,498.5313 220.0781,496.8906 Q218.7656,495.2344 218.7656,492.1094 Q218.7656,488.9844 220.0781,487.3281 Q221.4063,485.6719 223.9063,485.6719 Q224.6094,485.6719 225.25,485.8281 Q225.9063,485.9844 226.4688,486.2813 L226.4688,489 Q225.8438,488.4219 225.25,488.1563 Q224.6563,487.875 224.0313,487.875 Q222.6875,487.875 222,488.9531 Q221.3125,490.0156 221.3125,492.1094 Q221.3125,494.2031 222,495.2813 Q222.6875,496.3438 224.0313,496.3438 Q224.6563,496.3438 225.25,496.0781 Q225.8438,495.7969 226.4688,495.2188 L226.4688,497.9375 Z " fill="#000000"/><text fill="#000000" font-family="sans-serif" font-size="14" lengthAdjust="spacing" textLength="68" x="237.5" y="497.1436">BotPlayer</text><line style="stroke:#181818;stroke-width:0.5;" x1="209.5" x2="307.5" y1="508.2969" y2="508.2969"/><line style="stroke:#181818;stroke-width:0.5;" x1="209.5" x2="307.5" y1="516.2969" y2="516.2969"/></g><!--class Board--><g id="elem_Board"><rect codeLine="13" fill="#F1F1F1" height="48" id="Board" rx="2.5" ry="2.5" style="stroke:#181818;stroke-width:0.5;" width="75" x="527" y="476.2969"/><ellipse cx="542" cy="492.2969" fill="#ADD1B2" rx="11" ry="11" style="stroke:#181818;stroke-width:1.0;"/><path d="M544.9688,497.9375 Q544.3906,498.2344 543.75,498.375 Q543.1094,498.5313 542.4063,498.5313 Q539.9063,498.5313 538.5781,496.8906 Q537.2656,495.2344 537.2656,492.1094 Q537.2656,488.9844 538.5781,487.3281 Q539.9063,485.6719 542.4063,485.6719 Q543.1094,485.6719 543.75,485.8281 Q544.4063,485.9844 544.9688,486.2813 L544.9688,489 Q544.3438,488.4219 543.75,488.1563 Q543.1563,487.875 542.5313,487.875 Q541.1875,487.875 540.5,488.9531 Q539.8125,490.0156 539.8125,492.1094 Q539.8125,494.2031 540.5,495.2813 Q541.1875,496.3438 542.5313,496.3438 Q543.1563,496.3438 543.75,496.0781 Q544.3438,495.7969 544.9688,495.2188 L544.9688,497.9375 Z " fill="#000000"/><text fill="#000000" font-family="sans-serif" font-size="14" lengthAdjust="spacing" textLength="43" x="556" y="497.1436">Board</text><line style="stroke:#181818;stroke-width:0.5;" x1="528" x2="601" y1="508.2969" y2="508.2969"/><line style="stroke:#181818;stroke-width:0.5;" x1="528" x2="601" y1="516.2969" y2="516.2969"/></g><!--class Direction--><g id="elem_Direction"><rect codeLine="14" fill="#F1F1F1" height="48" id="Direction" rx="2.5" ry="2.5" style="stroke:#181818;stroke-width:0.5;" width="97" x="455" y="584.2969"/><ellipse cx="470" cy="600.2969" fill="#ADD1B2" rx="11" ry="11" style="stroke:#181818;stroke-width:1.0;"/><path d="M472.9688,605.9375 Q472.3906,606.2344 471.75,606.375 Q471.1094,606.5313 470.4063,606.5313 Q467.9063,606.5313 466.5781,604.8906 Q465.2656,603.2344 465.2656,600.1094 Q465.2656,596.9844 466.5781,595.3281 Q467.9063,593.6719 470.4063,593.6719 Q471.1094,593.6719 471.75,593.8281 Q472.4063,593.9844 472.9688,594.2813 L472.9688,597 Q472.3438,596.4219 471.75,596.1563 Q471.1563,595.875 470.5313,595.875 Q469.1875,595.875 468.5,596.9531 Q467.8125,598.0156 467.8125,600.1094 Q467.8125,602.2031 468.5,603.2813 Q469.1875,604.3438 470.5313,604.3438 Q471.1563,604.3438 471.75,604.0781 Q472.3438,603.7969 472.9688,603.2188 L472.9688,605.9375 Z " fill="#000000"/><text fill="#000000" font-family="sans-serif" font-size="14" lengthAdjust="spacing" textLength="65" x="484" y="605.1436">Direction</text><line style="stroke:#181818;stroke-width:0.5;" x1="456" x2="551" y1="616.2969" y2="616.2969"/><line style="stroke:#181818;stroke-width:0.5;" x1="456" x2="551" y1="624.2969" y2="624.2969"/></g><!--class Token--><g id="elem_Token"><rect codeLine="15" fill="#F1F1F1" height="48" id="Token" rx="2.5" ry="2.5" style="stroke:#181818;stroke-width:0.5;" width="76" x="587.5" y="584.2969"/><ellipse cx="602.5" cy="600.2969" fill="#ADD1B2" rx="11" ry="11" style="stroke:#181818;stroke-width:1.0;"/><path d="M605.4688,605.9375 Q604.8906,606.2344 604.25,606.375 Q603.6094,606.5313 602.9063,606.5313 Q600.4063,606.5313 599.0781,604.8906 Q597.7656,603.2344 597.7656,600.1094 Q597.7656,596.9844 599.0781,595.3281 Q600.4063,593.6719 602.9063,593.6719 Q603.6094,593.6719 604.25,593.8281 Q604.9063,593.9844 605.4688,594.2813 L605.4688,597 Q604.8438,596.4219 604.25,596.1563 Q603.6563,595.875 603.0313,595.875 Q601.6875,595.875 601,596.9531 Q600.3125,598.0156 600.3125,600.1094 Q600.3125,602.2031 601,603.2813 Q601.6875,604.3438 603.0313,604.3438 Q603.6563,604.3438 604.25,604.0781 Q604.8438,603.7969 605.4688,603.2188 L605.4688,605.9375 Z " fill="#000000"/><text fill="#000000" font-family="sans-serif" font-size="14" lengthAdjust="spacing" textLength="44" x="616.5" y="605.1436">Token</text><line style="stroke:#181818;stroke-width:0.5;" x1="588.5" x2="662.5" y1="616.2969" y2="616.2969"/><line style="stroke:#181818;stroke-width:0.5;" x1="588.5" x2="662.5" y1="624.2969" y2="624.2969"/></g><!--class Turn--><g id="elem_Turn"><rect codeLine="16" fill="#F1F1F1" height="48" id="Turn" rx="2.5" ry="2.5" style="stroke:#181818;stroke-width:0.5;" width="65" x="151" y="260.2969"/><ellipse cx="166" cy="276.2969" fill="#ADD1B2" rx="11" ry="11" style="stroke:#181818;stroke-width:1.0;"/><path d="M168.9688,281.9375 Q168.3906,282.2344 167.75,282.375 Q167.1094,282.5313 166.4063,282.5313 Q163.9063,282.5313 162.5781,280.8906 Q161.2656,279.2344 161.2656,276.1094 Q161.2656,272.9844 162.5781,271.3281 Q163.9063,269.6719 166.4063,269.6719 Q167.1094,269.6719 167.75,269.8281 Q168.4063,269.9844 168.9688,270.2813 L168.9688,273 Q168.3438,272.4219 167.75,272.1563 Q167.1563,271.875 166.5313,271.875 Q165.1875,271.875 164.5,272.9531 Q163.8125,274.0156 163.8125,276.1094 Q163.8125,278.2031 164.5,279.2813 Q165.1875,280.3438 166.5313,280.3438 Q167.1563,280.3438 167.75,280.0781 Q168.3438,279.7969 168.9688,279.2188 L168.9688,281.9375 Z " fill="#000000"/><text fill="#000000" font-family="sans-serif" font-size="14" lengthAdjust="spacing" textLength="33" x="180" y="281.1436">Turn</text><line style="stroke:#181818;stroke-width:0.5;" x1="152" x2="215" y1="292.2969" y2="292.2969"/><line style="stroke:#181818;stroke-width:0.5;" x1="152" x2="215" y1="300.2969" y2="300.2969"/></g><!--class Color--><g id="elem_Color"><rect codeLine="17" fill="#F1F1F1" height="48" id="Color" rx="2.5" ry="2.5" style="stroke:#181818;stroke-width:0.5;" width="70" x="590.5" y="692.2969"/><ellipse cx="605.5" cy="708.2969" fill="#ADD1B2" rx="11" ry="11" style="stroke:#181818;stroke-width:1.0;"/><path d="M608.4688,713.9375 Q607.8906,714.2344 607.25,714.375 Q606.6094,714.5313 605.9063,714.5313 Q603.4063,714.5313 602.0781,712.8906 Q600.7656,711.2344 600.7656,708.1094 Q600.7656,704.9844 602.0781,703.3281 Q603.4063,701.6719 605.9063,701.6719 Q606.6094,701.6719 607.25,701.8281 Q607.9063,701.9844 608.4688,702.2813 L608.4688,705 Q607.8438,704.4219 607.25,704.1563 Q606.6563,703.875 606.0313,703.875 Q604.6875,703.875 604,704.9531 Q603.3125,706.0156 603.3125,708.1094 Q603.3125,710.2031 604,711.2813 Q604.6875,712.3438 606.0313,712.3438 Q606.6563,712.3438 607.25,712.0781 Q607.8438,711.7969 608.4688,711.2188 L608.4688,713.9375 Z " fill="#000000"/><text fill="#000000" font-family="sans-serif" font-size="14" lengthAdjust="spacing" textLength="38" x="619.5" y="713.1436">Color</text><line style="stroke:#181818;stroke-width:0.5;" x1="591.5" x2="659.5" y1="724.2969" y2="724.2969"/><line style="stroke:#181818;stroke-width:0.5;" x1="591.5" x2="659.5" y1="732.2969" y2="732.2969"/></g><!--reverse link TurnVisitor to TurnView--><g id="link_TurnVisitor_TurnView"><path d="M330.2547,218.201 C328.4247,235.861 327.76,242.2369 325.92,259.9769 " fill="none" id="TurnVisitor-backto-TurnView" style="stroke:#181818;stroke-width:1.0;stroke-dasharray:7.0,7.0;"/><polygon fill="none" points="332.11,200.2969,324.2867,217.5826,336.2227,218.8194,332.11,200.2969" style="stroke:#181818;stroke-width:1.0;"/></g><!--reverse link Player to HumanPlayer--><g id="link_Player_HumanPlayer"><path d="M157.1413,431.0595 C144.8213,448.7195 138.16,458.2369 125.78,475.9769 " fill="none" id="Player-backto-HumanPlayer" style="stroke:#181818;stroke-width:1.0;stroke-dasharray:7.0,7.0;"/><polygon fill="none" points="167.44,416.2969,152.2204,427.6266,162.0621,434.4924,167.44,416.2969" style="stroke:#181818;stroke-width:1.0;"/></g><!--reverse link Player to BotPlayer--><g id="link_Player_BotPlayer"><path d="M210.1692,430.9889 C222.6692,448.6489 229.45,458.2369 242,475.9769 " fill="none" id="Player-backto-BotPlayer" style="stroke:#181818;stroke-width:1.0;stroke-dasharray:7.0,7.0;"/><polygon fill="none" points="199.77,416.2969,205.2719,434.4553,215.0666,427.5225,199.77,416.2969" style="stroke:#181818;stroke-width:1.0;"/></g><!--reverse link Turn to Player--><g id="link_Turn_Player"><path codeLine="21" d="M183.5,320.2969 C183.5,337.9569 183.5,350.2369 183.5,367.9769 " fill="none" id="Turn-backto-Player" style="stroke:#181818;stroke-width:1.0;"/><polygon fill="none" points="183.5,308.2969,179.5,314.2969,183.5,320.2969,187.5,314.2969,183.5,308.2969" style="stroke:#181818;stroke-width:1.0;"/><text fill="#000000" font-family="sans-serif" font-size="13" lengthAdjust="spacing" textLength="8" x="174.525" y="357.3038">2</text></g><!--reverse link Connect4 to Game--><g id="link_Connect4_Game"><path codeLine="22" d="M455.5229,103.678 C477.9829,162.938 533.09,308.4069 555.64,367.9169 " fill="none" id="Connect4-backto-Game" style="stroke:#181818;stroke-width:1.0;"/><polygon fill="#181818" points="451.27,92.4569,449.6561,99.4851,455.5229,103.678,457.1368,96.6498,451.27,92.4569" style="stroke:#181818;stroke-width:1.0;"/></g><!--reverse link Connect4 to View--><g id="link_Connect4_View"><path codeLine="23" d="M480.0088,99.8819 C501.6588,117.5419 522.14,134.2369 543.9,151.9769 " fill="none" id="Connect4-backto-View" style="stroke:#181818;stroke-width:1.0;"/><polygon fill="#181818" points="470.71,92.2969,472.831,99.189,480.0088,99.8819,477.8877,92.9898,470.71,92.2969" style="stroke:#181818;stroke-width:1.0;"/></g><!--reverse link Connect4 to GameController--><g id="link_Connect4_GameController"><path codeLine="24" d="M381.3039,93.2366 C335.5739,111.1166 279.07,133.2169 230.67,152.1569 " fill="none" id="Connect4-backto-GameController" style="stroke:#181818;stroke-width:1.0;"/><polygon fill="#181818" points="392.48,88.8669,385.4354,87.3264,381.3039,93.2366,388.3485,94.7771,392.48,88.8669" style="stroke:#181818;stroke-width:1.0;"/></g><!--reverse link View to StartView--><g id="link_View_StartView"><path codeLine="25" d="M586.6502,211.3801 C593.9802,229.0401 599.46,242.2369 606.82,259.9769 " fill="none" id="View-backto-StartView" style="stroke:#181818;stroke-width:1.0;"/><polygon fill="#181818" points="582.05,200.2969,580.6557,207.3719,586.6502,211.3801,588.0445,204.3051,582.05,200.2969" style="stroke:#181818;stroke-width:1.0;"/></g><!--reverse link View to ResumeView--><g id="link_View_ResumeView"><path codeLine="26" d="M616.2617,201.5813 C648.5417,219.5013 687.12,240.9069 721.95,260.2369 " fill="none" id="View-backto-ResumeView" style="stroke:#181818;stroke-width:1.0;"/><polygon fill="#181818" points="605.77,195.7569,609.0744,202.1663,616.2617,201.5813,612.9573,195.1718,605.77,195.7569" style="stroke:#181818;stroke-width:1.0;"/></g><!--reverse link View to Game--><g id="link_View_Game"><path codeLine="27" d="M559.9901,211.8789 C554.3601,228.3089 551.42,239.6569 548.5,260.2969 C543.16,297.9569 551.48,341.8569 557.98,368.0669 " fill="none" id="View-backto-Game" style="stroke:#181818;stroke-width:1.0;"/><polygon fill="none" points="563.88,200.5269,558.151,204.9062,559.9901,211.8789,565.719,207.4995,563.88,200.5269" style="stroke:#181818;stroke-width:1.0;"/></g><!--reverse link StartView to Game--><g id="link_StartView_Game"><path codeLine="28" d="M599.9317,319.0688 C591.2617,336.7288 584.64,350.2369 575.94,367.9769 " fill="none" id="StartView-backto-Game" style="stroke:#181818;stroke-width:1.0;"/><polygon fill="none" points="605.22,308.2969,598.9852,311.92,599.9317,319.0688,606.1665,315.4456,605.22,308.2969" style="stroke:#181818;stroke-width:1.0;"/></g><!--reverse link ResumeView to Game--><g id="link_ResumeView_Game"><path codeLine="29" d="M709.7282,313.9372 C674.5182,332.6872 635.88,353.2769 602.23,371.1969 " fill="none" id="ResumeView-backto-Game" style="stroke:#181818;stroke-width:1.0;"/><polygon fill="none" points="720.32,308.2969,713.144,307.5864,709.7282,313.9372,716.9042,314.6477,720.32,308.2969" style="stroke:#181818;stroke-width:1.0;"/></g><!--link GameController to TurnView--><g id="link_GameController_TurnView"><path codeLine="30" d="M204.48,200.2969 C229.89,218.0169 259.9381,238.9754 285.3981,256.7254 " fill="none" id="GameController-to-TurnView" style="stroke:#181818;stroke-width:1.0;"/><polygon fill="#181818" points="290.32,260.1569,285.2247,251.7285,286.2184,257.2974,280.6495,258.291,290.32,260.1569" style="stroke:#181818;stroke-width:1.0;"/></g><!--link GameController to BoardView--><g id="link_GameController_BoardView"><path codeLine="31" d="M147.63,200.2969 C129.31,217.9569 108.4305,238.0736 90.0205,255.8136 " fill="none" id="GameController-to-BoardView" style="stroke:#181818;stroke-width:1.0;"/><polygon fill="#181818" points="85.7,259.9769,94.9563,256.6123,89.3004,256.5075,89.4053,250.8516,85.7,259.9769" style="stroke:#181818;stroke-width:1.0;"/></g><!--link GameController to Turn--><g id="link_GameController_Turn"><path codeLine="32" d="M174.1,200.2969 C176.1,217.9569 178.1745,236.275 180.1845,254.015 " fill="none" id="GameController-to-Turn" style="stroke:#181818;stroke-width:1.0;"/><polygon fill="#181818" points="180.86,259.9769,183.8213,250.5838,180.2971,255.0087,175.8722,251.4844,180.86,259.9769" style="stroke:#181818;stroke-width:1.0;"/></g><!--reverse link Game to Board--><g id="link_Game_Board"><path codeLine="33" d="M564.5,428.2969 C564.5,445.9569 564.5,458.2369 564.5,475.9769 " fill="none" id="Game-backto-Board" style="stroke:#181818;stroke-width:1.0;"/><polygon fill="#181818" points="564.5,416.2969,560.5,422.2969,564.5,428.2969,568.5,422.2969,564.5,416.2969" style="stroke:#181818;stroke-width:1.0;"/></g><!--reverse link Token to Color--><g id="link_Token_Color"><path codeLine="34" d="M625.5,644.2969 C625.5,661.9569 625.5,674.2369 625.5,691.9769 " fill="none" id="Token-backto-Color" style="stroke:#181818;stroke-width:1.0;"/><polygon fill="none" points="625.5,632.2969,621.5,638.2969,625.5,644.2969,629.5,638.2969,625.5,632.2969" style="stroke:#181818;stroke-width:1.0;"/></g><!--reverse link Board to Token--><g id="link_Board_Token"><path codeLine="35" d="M583.7241,534.6984 C593.8841,552.3584 601.87,566.2369 612.08,583.9769 " fill="none" id="Board-backto-Token" style="stroke:#181818;stroke-width:1.0;"/><polygon fill="none" points="577.74,524.2969,577.2649,531.4923,583.7241,534.6984,584.1992,527.5029,577.74,524.2969" style="stroke:#181818;stroke-width:1.0;"/></g><!--link Board to Direction--><g id="link_Board_Direction"><path codeLine="36" d="M551.26,524.2969 C541.1,541.9569 530.1229,561.0366 519.9129,578.7766 " fill="none" id="Board-to-Direction" style="stroke:#181818;stroke-width:1.0;"/><polygon fill="#181818" points="516.92,583.9769,524.8762,578.1718,519.4141,579.6433,517.9426,574.1812,516.92,583.9769" style="stroke:#181818;stroke-width:1.0;"/></g><!--SRC=[XP5DImGn38RlyolA7XS6HFQyu0UeDt75UnqZX6tJ9SqW-kjjCzEFHSLRtgTlc_HDF2ATB5jl9cTZl19XV9q57gP01_m2Sp48YWDp4uXW4hCpTzR3eEu2TwlC9ma91-U0ExYMBmWVQtaGozBf9uYpXmvS1yjldNwUcR8qw4yEF90K5b52QNO_UqkFpdu2zyQ5r9VbNqVglTQtoEc76AZC4Ov0tKmr2PU6G1BWTpj1UQ-1VjOX2nF6qMmkDyLQiZJRn3MqCw9H_F1qQMiucRTeA-hILHPAY-fjg7aREszbnd5Vz_7RMTlT7nULwsHBr1ggjbjoLAfwYNlH-NPRnpS0]--></g></svg>