<?xml version="1.0" encoding="us-ascii" standalone="no"?><svg xmlns="http://www.w3.org/2000/svg" xmlns:xlink="http://www.w3.org/1999/xlink" contentStyleType="text/css" height="423px" preserveAspectRatio="none" style="width:382px;height:423px;background:#FFFFFF;" version="1.1" viewBox="0 0 382 423" width="382px" zoomAndPan="magnify"><defs/><g><text fill="#000000" font-family="sans-serif" font-size="14" font-weight="bold" lengthAdjust="spacing" textLength="130" x="119" y="22.9951">Connect 4 Game</text><!--class Game--><g id="elem_Game"><rect codeLine="3" fill="#F1F1F1" height="48" id="Game" rx="2.5" ry="2.5" style="stroke:#181818;stroke-width:0.5;" width="75" x="122.5" y="44.2969"/><ellipse cx="137.5" cy="60.2969" fill="#ADD1B2" rx="11" ry="11" style="stroke:#181818;stroke-width:1.0;"/><path d="M140.4688,65.9375 Q139.8906,66.2344 139.25,66.375 Q138.6094,66.5313 137.9063,66.5313 Q135.4063,66.5313 134.0781,64.8906 Q132.7656,63.2344 132.7656,60.1094 Q132.7656,56.9844 134.0781,55.3281 Q135.4063,53.6719 137.9063,53.6719 Q138.6094,53.6719 139.25,53.8281 Q139.9063,53.9844 140.4688,54.2813 L140.4688,57 Q139.8438,56.4219 139.25,56.1563 Q138.6563,55.875 138.0313,55.875 Q136.6875,55.875 136,56.9531 Q135.3125,58.0156 135.3125,60.1094 Q135.3125,62.2031 136,63.2813 Q136.6875,64.3438 138.0313,64.3438 Q138.6563,64.3438 139.25,64.0781 Q139.8438,63.7969 140.4688,63.2188 L140.4688,65.9375 Z " fill="#000000"/><text fill="#000000" font-family="sans-serif" font-size="14" lengthAdjust="spacing" textLength="43" x="151.5" y="65.1436">Game</text><line style="stroke:#181818;stroke-width:0.5;" x1="123.5" x2="196.5" y1="76.2969" y2="76.2969"/><line style="stroke:#181818;stroke-width:0.5;" x1="123.5" x2="196.5" y1="84.2969" y2="84.2969"/></g><!--class Player--><g id="elem_Player"><rect codeLine="4" fill="#F1F1F1" height="48" id="Player" rx="2.5" ry="2.5" style="stroke:#181818;stroke-width:0.5;" width="76" x="138" y="260.2969"/><ellipse cx="153" cy="276.2969" fill="#B4A7E5" rx="11" ry="11" style="stroke:#181818;stroke-width:1.0;"/><path d="M148.9219,272.0625 L148.9219,269.9063 L156.3125,269.9063 L156.3125,272.0625 L153.8438,272.0625 L153.8438,280.1406 L156.3125,280.1406 L156.3125,282.2969 L148.9219,282.2969 L148.9219,280.1406 L151.3906,280.1406 L151.3906,272.0625 L148.9219,272.0625 Z " fill="#000000"/><text fill="#000000" font-family="sans-serif" font-size="14" font-style="italic" lengthAdjust="spacing" textLength="44" x="167" y="281.1436">Player</text><line style="stroke:#181818;stroke-width:0.5;" x1="139" x2="213" y1="292.2969" y2="292.2969"/><line style="stroke:#181818;stroke-width:0.5;" x1="139" x2="213" y1="300.2969" y2="300.2969"/></g><!--class HumanPlayer--><g id="elem_HumanPlayer"><rect codeLine="5" fill="#F1F1F1" height="48" id="HumanPlayer" rx="2.5" ry="2.5" style="stroke:#181818;stroke-width:0.5;" width="128" x="112" y="368.2969"/><ellipse cx="127" cy="384.2969" fill="#ADD1B2" rx="11" ry="11" style="stroke:#181818;stroke-width:1.0;"/><path d="M129.9688,389.9375 Q129.3906,390.2344 128.75,390.375 Q128.1094,390.5313 127.4063,390.5313 Q124.9063,390.5313 123.5781,388.8906 Q122.2656,387.2344 122.2656,384.1094 Q122.2656,380.9844 123.5781,379.3281 Q124.9063,377.6719 127.4063,377.6719 Q128.1094,377.6719 128.75,377.8281 Q129.4063,377.9844 129.9688,378.2813 L129.9688,381 Q129.3438,380.4219 128.75,380.1563 Q128.1563,379.875 127.5313,379.875 Q126.1875,379.875 125.5,380.9531 Q124.8125,382.0156 124.8125,384.1094 Q124.8125,386.2031 125.5,387.2813 Q126.1875,388.3438 127.5313,388.3438 Q128.1563,388.3438 128.75,388.0781 Q129.3438,387.7969 129.9688,387.2188 L129.9688,389.9375 Z " fill="#000000"/><text fill="#000000" font-family="sans-serif" font-size="14" lengthAdjust="spacing" textLength="96" x="141" y="389.1436">HumanPlayer</text><line style="stroke:#181818;stroke-width:0.5;" x1="113" x2="239" y1="400.2969" y2="400.2969"/><line style="stroke:#181818;stroke-width:0.5;" x1="113" x2="239" y1="408.2969" y2="408.2969"/></g><!--class BotPlayer--><g id="elem_BotPlayer"><rect codeLine="6" fill="#F1F1F1" height="48" id="BotPlayer" rx="2.5" ry="2.5" style="stroke:#181818;stroke-width:0.5;" width="100" x="275" y="368.2969"/><ellipse cx="290" cy="384.2969" fill="#ADD1B2" rx="11" ry="11" style="stroke:#181818;stroke-width:1.0;"/><path d="M292.9688,389.9375 Q292.3906,390.2344 291.75,390.375 Q291.1094,390.5313 290.4063,390.5313 Q287.9063,390.5313 286.5781,388.8906 Q285.2656,387.2344 285.2656,384.1094 Q285.2656,380.9844 286.5781,379.3281 Q287.9063,377.6719 290.4063,377.6719 Q291.1094,377.6719 291.75,377.8281 Q292.4063,377.9844 292.9688,378.2813 L292.9688,381 Q292.3438,380.4219 291.75,380.1563 Q291.1563,379.875 290.5313,379.875 Q289.1875,379.875 288.5,380.9531 Q287.8125,382.0156 287.8125,384.1094 Q287.8125,386.2031 288.5,387.2813 Q289.1875,388.3438 290.5313,388.3438 Q291.1563,388.3438 291.75,388.0781 Q292.3438,387.7969 292.9688,387.2188 L292.9688,389.9375 Z " fill="#000000"/><text fill="#000000" font-family="sans-serif" font-size="14" lengthAdjust="spacing" textLength="68" x="304" y="389.1436">BotPlayer</text><line style="stroke:#181818;stroke-width:0.5;" x1="276" x2="374" y1="400.2969" y2="400.2969"/><line style="stroke:#181818;stroke-width:0.5;" x1="276" x2="374" y1="408.2969" y2="408.2969"/></g><!--class Board--><g id="elem_Board"><rect codeLine="7" fill="#F1F1F1" height="48" id="Board" rx="2.5" ry="2.5" style="stroke:#181818;stroke-width:0.5;" width="75" x="19.5" y="152.2969"/><ellipse cx="34.5" cy="168.2969" fill="#ADD1B2" rx="11" ry="11" style="stroke:#181818;stroke-width:1.0;"/><path d="M37.4688,173.9375 Q36.8906,174.2344 36.25,174.375 Q35.6094,174.5313 34.9063,174.5313 Q32.4063,174.5313 31.0781,172.8906 Q29.7656,171.2344 29.7656,168.1094 Q29.7656,164.9844 31.0781,163.3281 Q32.4063,161.6719 34.9063,161.6719 Q35.6094,161.6719 36.25,161.8281 Q36.9063,161.9844 37.4688,162.2813 L37.4688,165 Q36.8438,164.4219 36.25,164.1563 Q35.6563,163.875 35.0313,163.875 Q33.6875,163.875 33,164.9531 Q32.3125,166.0156 32.3125,168.1094 Q32.3125,170.2031 33,171.2813 Q33.6875,172.3438 35.0313,172.3438 Q35.6563,172.3438 36.25,172.0781 Q36.8438,171.7969 37.4688,171.2188 L37.4688,173.9375 Z " fill="#000000"/><text fill="#000000" font-family="sans-serif" font-size="14" lengthAdjust="spacing" textLength="43" x="48.5" y="173.1436">Board</text><line style="stroke:#181818;stroke-width:0.5;" x1="20.5" x2="93.5" y1="184.2969" y2="184.2969"/><line style="stroke:#181818;stroke-width:0.5;" x1="20.5" x2="93.5" y1="192.2969" y2="192.2969"/></g><!--class Token--><g id="elem_Token"><rect codeLine="8" fill="#F1F1F1" height="48" id="Token" rx="2.5" ry="2.5" style="stroke:#181818;stroke-width:0.5;" width="76" x="16" y="260.2969"/><ellipse cx="31" cy="276.2969" fill="#ADD1B2" rx="11" ry="11" style="stroke:#181818;stroke-width:1.0;"/><path d="M33.9688,281.9375 Q33.3906,282.2344 32.75,282.375 Q32.1094,282.5313 31.4063,282.5313 Q28.9063,282.5313 27.5781,280.8906 Q26.2656,279.2344 26.2656,276.1094 Q26.2656,272.9844 27.5781,271.3281 Q28.9063,269.6719 31.4063,269.6719 Q32.1094,269.6719 32.75,269.8281 Q33.4063,269.9844 33.9688,270.2813 L33.9688,273 Q33.3438,272.4219 32.75,272.1563 Q32.1563,271.875 31.5313,271.875 Q30.1875,271.875 29.5,272.9531 Q28.8125,274.0156 28.8125,276.1094 Q28.8125,278.2031 29.5,279.2813 Q30.1875,280.3438 31.5313,280.3438 Q32.1563,280.3438 32.75,280.0781 Q33.3438,279.7969 33.9688,279.2188 L33.9688,281.9375 Z " fill="#000000"/><text fill="#000000" font-family="sans-serif" font-size="14" lengthAdjust="spacing" textLength="44" x="45" y="281.1436">Token</text><line style="stroke:#181818;stroke-width:0.5;" x1="17" x2="91" y1="292.2969" y2="292.2969"/><line style="stroke:#181818;stroke-width:0.5;" x1="17" x2="91" y1="300.2969" y2="300.2969"/></g><!--class Turn--><g id="elem_Turn"><rect codeLine="9" fill="#F1F1F1" height="48" id="Turn" rx="2.5" ry="2.5" style="stroke:#181818;stroke-width:0.5;" width="65" x="130.5" y="152.2969"/><ellipse cx="145.5" cy="168.2969" fill="#ADD1B2" rx="11" ry="11" style="stroke:#181818;stroke-width:1.0;"/><path d="M148.4688,173.9375 Q147.8906,174.2344 147.25,174.375 Q146.6094,174.5313 145.9063,174.5313 Q143.4063,174.5313 142.0781,172.8906 Q140.7656,171.2344 140.7656,168.1094 Q140.7656,164.9844 142.0781,163.3281 Q143.4063,161.6719 145.9063,161.6719 Q146.6094,161.6719 147.25,161.8281 Q147.9063,161.9844 148.4688,162.2813 L148.4688,165 Q147.8438,164.4219 147.25,164.1563 Q146.6563,163.875 146.0313,163.875 Q144.6875,163.875 144,164.9531 Q143.3125,166.0156 143.3125,168.1094 Q143.3125,170.2031 144,171.2813 Q144.6875,172.3438 146.0313,172.3438 Q146.6563,172.3438 147.25,172.0781 Q147.8438,171.7969 148.4688,171.2188 L148.4688,173.9375 Z " fill="#000000"/><text fill="#000000" font-family="sans-serif" font-size="14" lengthAdjust="spacing" textLength="33" x="159.5" y="173.1436">Turn</text><line style="stroke:#181818;stroke-width:0.5;" x1="131.5" x2="194.5" y1="184.2969" y2="184.2969"/><line style="stroke:#181818;stroke-width:0.5;" x1="131.5" x2="194.5" y1="192.2969" y2="192.2969"/></g><!--class TurnView--><g id="elem_TurnView"><rect codeLine="10" fill="#F1F1F1" height="48" id="TurnView" rx="2.5" ry="2.5" style="stroke:#181818;stroke-width:0.5;" width="99" x="235.5" y="152.2969"/><ellipse cx="250.5" cy="168.2969" fill="#ADD1B2" rx="11" ry="11" style="stroke:#181818;stroke-width:1.0;"/><path d="M253.4688,173.9375 Q252.8906,174.2344 252.25,174.375 Q251.6094,174.5313 250.9063,174.5313 Q248.4063,174.5313 247.0781,172.8906 Q245.7656,171.2344 245.7656,168.1094 Q245.7656,164.9844 247.0781,163.3281 Q248.4063,161.6719 250.9063,161.6719 Q251.6094,161.6719 252.25,161.8281 Q252.9063,161.9844 253.4688,162.2813 L253.4688,165 Q252.8438,164.4219 252.25,164.1563 Q251.6563,163.875 251.0313,163.875 Q249.6875,163.875 249,164.9531 Q248.3125,166.0156 248.3125,168.1094 Q248.3125,170.2031 249,171.2813 Q249.6875,172.3438 251.0313,172.3438 Q251.6563,172.3438 252.25,172.0781 Q252.8438,171.7969 253.4688,171.2188 L253.4688,173.9375 Z " fill="#000000"/><text fill="#000000" font-family="sans-serif" font-size="14" lengthAdjust="spacing" textLength="67" x="264.5" y="173.1436">TurnView</text><line style="stroke:#181818;stroke-width:0.5;" x1="236.5" x2="333.5" y1="184.2969" y2="184.2969"/><line style="stroke:#181818;stroke-width:0.5;" x1="236.5" x2="333.5" y1="192.2969" y2="192.2969"/></g><!--class TurnVisitor--><g id="elem_TurnVisitor"><rect codeLine="11" fill="#F1F1F1" height="48" id="TurnVisitor" rx="2.5" ry="2.5" style="stroke:#181818;stroke-width:0.5;" width="110" x="233" y="44.2969"/><ellipse cx="248" cy="60.2969" fill="#B4A7E5" rx="11" ry="11" style="stroke:#181818;stroke-width:1.0;"/><path d="M243.9219,56.0625 L243.9219,53.9063 L251.3125,53.9063 L251.3125,56.0625 L248.8438,56.0625 L248.8438,64.1406 L251.3125,64.1406 L251.3125,66.2969 L243.9219,66.2969 L243.9219,64.1406 L246.3906,64.1406 L246.3906,56.0625 L243.9219,56.0625 Z " fill="#000000"/><text fill="#000000" font-family="sans-serif" font-size="14" font-style="italic" lengthAdjust="spacing" textLength="78" x="262" y="65.1436">TurnVisitor</text><line style="stroke:#181818;stroke-width:0.5;" x1="234" x2="342" y1="76.2969" y2="76.2969"/><line style="stroke:#181818;stroke-width:0.5;" x1="234" x2="342" y1="84.2969" y2="84.2969"/></g><!--class Color--><g id="elem_Color"><rect codeLine="12" fill="#F1F1F1" height="48" id="Color" rx="2.5" ry="2.5" style="stroke:#181818;stroke-width:0.5;" width="70" x="7" y="368.2969"/><ellipse cx="22" cy="384.2969" fill="#ADD1B2" rx="11" ry="11" style="stroke:#181818;stroke-width:1.0;"/><path d="M24.9688,389.9375 Q24.3906,390.2344 23.75,390.375 Q23.1094,390.5313 22.4063,390.5313 Q19.9063,390.5313 18.5781,388.8906 Q17.2656,387.2344 17.2656,384.1094 Q17.2656,380.9844 18.5781,379.3281 Q19.9063,377.6719 22.4063,377.6719 Q23.1094,377.6719 23.75,377.8281 Q24.4063,377.9844 24.9688,378.2813 L24.9688,381 Q24.3438,380.4219 23.75,380.1563 Q23.1563,379.875 22.5313,379.875 Q21.1875,379.875 20.5,380.9531 Q19.8125,382.0156 19.8125,384.1094 Q19.8125,386.2031 20.5,387.2813 Q21.1875,388.3438 22.5313,388.3438 Q23.1563,388.3438 23.75,388.0781 Q24.3438,387.7969 24.9688,387.2188 L24.9688,389.9375 Z " fill="#000000"/><text fill="#000000" font-family="sans-serif" font-size="14" lengthAdjust="spacing" textLength="38" x="36" y="389.1436">Color</text><line style="stroke:#181818;stroke-width:0.5;" x1="8" x2="76" y1="400.2969" y2="400.2969"/><line style="stroke:#181818;stroke-width:0.5;" x1="8" x2="76" y1="408.2969" y2="408.2969"/></g><!--reverse link Player to HumanPlayer--><g id="link_Player_HumanPlayer"><path d="M176,326.2969 C176,343.9569 176,350.2369 176,367.9769 " fill="none" id="Player-backto-HumanPlayer" style="stroke:#181818;stroke-width:1.0;stroke-dasharray:7.0,7.0;"/><polygon fill="none" points="176,308.2969,170,326.2969,182,326.2969,176,308.2969" style="stroke:#181818;stroke-width:1.0;"/></g><!--reverse link Player to BotPlayer--><g id="link_Player_BotPlayer"><path d="M222.9975,318.7307 C247.9075,336.4507 267.52,350.4069 292.48,368.1569 " fill="none" id="Player-backto-BotPlayer" style="stroke:#181818;stroke-width:1.0;stroke-dasharray:7.0,7.0;"/><polygon fill="none" points="208.33,308.2969,219.5195,323.6199,226.4754,313.8416,208.33,308.2969" style="stroke:#181818;stroke-width:1.0;"/></g><!--reverse link TurnVisitor to TurnView--><g id="link_TurnVisitor_TurnView"><path d="M286.8406,110.2897 C286.3406,127.9497 286.16,134.2369 285.66,151.9769 " fill="none" id="TurnVisitor-backto-TurnView" style="stroke:#181818;stroke-width:1.0;stroke-dasharray:7.0,7.0;"/><polygon fill="none" points="287.35,92.2969,280.843,110.1199,292.8382,110.4595,287.35,92.2969" style="stroke:#181818;stroke-width:1.0;"/></g><!--reverse link Turn to Player--><g id="link_Turn_Player"><path codeLine="14" d="M167.2835,212.2073 C169.4535,229.8673 170.96,242.2369 173.14,259.9769 " fill="none" id="Turn-backto-Player" style="stroke:#181818;stroke-width:1.0;"/><polygon fill="none" points="165.82,200.2969,162.5816,206.7399,167.2835,212.2073,170.5219,205.7642,165.82,200.2969" style="stroke:#181818;stroke-width:1.0;"/><text fill="#000000" font-family="sans-serif" font-size="13" lengthAdjust="spacing" textLength="8" x="163.4679" y="249.3038">2</text></g><!--reverse link Game to Board--><g id="link_Game_Board"><path codeLine="15" d="M129.2874,100.9031 C112.1274,118.5631 96.9,134.2369 79.66,151.9769 " fill="none" id="Game-backto-Board" style="stroke:#181818;stroke-width:1.0;"/><polygon fill="#181818" points="137.65,92.2969,130.6,93.8125,129.2874,100.9031,136.3375,99.3875,137.65,92.2969" style="stroke:#181818;stroke-width:1.0;"/></g><!--reverse link Game to TurnView--><g id="link_Game_TurnView"><path codeLine="16" d="M196.2731,100.057 C217.1031,117.717 236.58,134.2369 257.5,151.9769 " fill="none" id="Game-backto-TurnView" style="stroke:#181818;stroke-width:1.0;"/><polygon fill="#181818" points="187.12,92.2969,189.1098,99.228,196.2731,100.057,194.2833,93.1259,187.12,92.2969" style="stroke:#181818;stroke-width:1.0;"/></g><!--reverse link Token to Color--><g id="link_Token_Color"><path codeLine="17" d="M50.0496,320.2207 C48.0496,337.8807 46.65,350.2369 44.64,367.9769 " fill="none" id="Token-backto-Color" style="stroke:#181818;stroke-width:1.0;"/><polygon fill="#181818" points="51.4,308.2969,46.7502,313.8086,50.0496,320.2207,54.6994,314.7089,51.4,308.2969" style="stroke:#181818;stroke-width:1.0;"/></g><!--reverse link Board to Token--><g id="link_Board_Token"><path codeLine="18" d="M56.0104,212.2921 C55.5104,229.9521 55.16,242.2369 54.66,259.9769 " fill="none" id="Board-backto-Token" style="stroke:#181818;stroke-width:1.0;"/><polygon fill="#181818" points="56.35,200.2969,52.1818,206.1813,56.0104,212.2921,60.1786,206.4077,56.35,200.2969" style="stroke:#181818;stroke-width:1.0;"/></g><!--link Game to Turn--><g id="link_Game_Turn"><path codeLine="19" d="M160.65,92.2969 C161.15,109.9569 161.671,128.2393 162.171,145.9793 " fill="none" id="Game-to-Turn" style="stroke:#181818;stroke-width:1.0;"/><polygon fill="#181818" points="162.34,151.9769,166.0848,142.8678,162.1991,146.9789,158.088,143.0931,162.34,151.9769" style="stroke:#181818;stroke-width:1.0;"/></g><!--SRC=[XOy_2y903CNt-nIXer0GSHQqWxe9YljvHWYzF-KkHVJJsrvQEIUtbvTVafVKakzqr0wCrIbjcIFTUiQZ2VvCRuIbOcABq0JlqJ2iOQyTgaoB9CyO7zeWdAn-OPnwXzvfBmwGwomwz9n-cLtWluIEzqbVGej-rdqivPNmMUuGBn67MEGhNPbjWXsq6XiGwXggLJNV7t-3nU19X6yvdrCvJhPaI-O4oK7pH5rl9Ei7]--></g></svg>