<?xml version="1.0" encoding="us-ascii" standalone="no"?><svg xmlns="http://www.w3.org/2000/svg" xmlns:xlink="http://www.w3.org/1999/xlink" contentStyleType="text/css" height="423px" preserveAspectRatio="none" style="width:251px;height:423px;background:#FFFFFF;" version="1.1" viewBox="0 0 251 423" width="251px" zoomAndPan="magnify"><defs/><g><text fill="#000000" font-family="sans-serif" font-size="14" font-weight="bold" lengthAdjust="spacing" textLength="130" x="53.75" y="22.9951">Connect 4 Game</text><!--class Game--><g id="elem_Game"><rect codeLine="3" fill="#F1F1F1" height="48" id="Game" rx="2.5" ry="2.5" style="stroke:#181818;stroke-width:0.5;" width="75" x="78" y="44.2969"/><ellipse cx="93" cy="60.2969" fill="#ADD1B2" rx="11" ry="11" style="stroke:#181818;stroke-width:1.0;"/><path d="M95.9688,65.9375 Q95.3906,66.2344 94.75,66.375 Q94.1094,66.5313 93.4063,66.5313 Q90.9063,66.5313 89.5781,64.8906 Q88.2656,63.2344 88.2656,60.1094 Q88.2656,56.9844 89.5781,55.3281 Q90.9063,53.6719 93.4063,53.6719 Q94.1094,53.6719 94.75,53.8281 Q95.4063,53.9844 95.9688,54.2813 L95.9688,57 Q95.3438,56.4219 94.75,56.1563 Q94.1563,55.875 93.5313,55.875 Q92.1875,55.875 91.5,56.9531 Q90.8125,58.0156 90.8125,60.1094 Q90.8125,62.2031 91.5,63.2813 Q92.1875,64.3438 93.5313,64.3438 Q94.1563,64.3438 94.75,64.0781 Q95.3438,63.7969 95.9688,63.2188 L95.9688,65.9375 Z " fill="#000000"/><text fill="#000000" font-family="sans-serif" font-size="14" lengthAdjust="spacing" textLength="43" x="107" y="65.1436">Game</text><line style="stroke:#181818;stroke-width:0.5;" x1="79" x2="152" y1="76.2969" y2="76.2969"/><line style="stroke:#181818;stroke-width:0.5;" x1="79" x2="152" y1="84.2969" y2="84.2969"/></g><!--class Player--><g id="elem_Player"><rect codeLine="4" fill="#F1F1F1" height="48" id="Player" rx="2.5" ry="2.5" style="stroke:#181818;stroke-width:0.5;" width="76" x="117.5" y="368.2969"/><ellipse cx="132.5" cy="384.2969" fill="#ADD1B2" rx="11" ry="11" style="stroke:#181818;stroke-width:1.0;"/><path d="M135.4688,389.9375 Q134.8906,390.2344 134.25,390.375 Q133.6094,390.5313 132.9063,390.5313 Q130.4063,390.5313 129.0781,388.8906 Q127.7656,387.2344 127.7656,384.1094 Q127.7656,380.9844 129.0781,379.3281 Q130.4063,377.6719 132.9063,377.6719 Q133.6094,377.6719 134.25,377.8281 Q134.9063,377.9844 135.4688,378.2813 L135.4688,381 Q134.8438,380.4219 134.25,380.1563 Q133.6563,379.875 133.0313,379.875 Q131.6875,379.875 131,380.9531 Q130.3125,382.0156 130.3125,384.1094 Q130.3125,386.2031 131,387.2813 Q131.6875,388.3438 133.0313,388.3438 Q133.6563,388.3438 134.25,388.0781 Q134.8438,387.7969 135.4688,387.2188 L135.4688,389.9375 Z " fill="#000000"/><text fill="#000000" font-family="sans-serif" font-size="14" lengthAdjust="spacing" textLength="44" x="146.5" y="389.1436">Player</text><line style="stroke:#181818;stroke-width:0.5;" x1="118.5" x2="192.5" y1="400.2969" y2="400.2969"/><line style="stroke:#181818;stroke-width:0.5;" x1="118.5" x2="192.5" y1="408.2969" y2="408.2969"/></g><!--class Board--><g id="elem_Board"><rect codeLine="5" fill="#F1F1F1" height="48" id="Board" rx="2.5" ry="2.5" style="stroke:#181818;stroke-width:0.5;" width="75" x="7" y="368.2969"/><ellipse cx="22" cy="384.2969" fill="#ADD1B2" rx="11" ry="11" style="stroke:#181818;stroke-width:1.0;"/><path d="M24.9688,389.9375 Q24.3906,390.2344 23.75,390.375 Q23.1094,390.5313 22.4063,390.5313 Q19.9063,390.5313 18.5781,388.8906 Q17.2656,387.2344 17.2656,384.1094 Q17.2656,380.9844 18.5781,379.3281 Q19.9063,377.6719 22.4063,377.6719 Q23.1094,377.6719 23.75,377.8281 Q24.4063,377.9844 24.9688,378.2813 L24.9688,381 Q24.3438,380.4219 23.75,380.1563 Q23.1563,379.875 22.5313,379.875 Q21.1875,379.875 20.5,380.9531 Q19.8125,382.0156 19.8125,384.1094 Q19.8125,386.2031 20.5,387.2813 Q21.1875,388.3438 22.5313,388.3438 Q23.1563,388.3438 23.75,388.0781 Q24.3438,387.7969 24.9688,387.2188 L24.9688,389.9375 Z " fill="#000000"/><text fill="#000000" font-family="sans-serif" font-size="14" lengthAdjust="spacing" textLength="43" x="36" y="389.1436">Board</text><line style="stroke:#181818;stroke-width:0.5;" x1="8" x2="81" y1="400.2969" y2="400.2969"/><line style="stroke:#181818;stroke-width:0.5;" x1="8" x2="81" y1="408.2969" y2="408.2969"/></g><!--class Turn--><g id="elem_Turn"><rect codeLine="6" fill="#F1F1F1" height="48" id="Turn" rx="2.5" ry="2.5" style="stroke:#181818;stroke-width:0.5;" width="65" x="110" y="260.2969"/><ellipse cx="125" cy="276.2969" fill="#ADD1B2" rx="11" ry="11" style="stroke:#181818;stroke-width:1.0;"/><path d="M127.9688,281.9375 Q127.3906,282.2344 126.75,282.375 Q126.1094,282.5313 125.4063,282.5313 Q122.9063,282.5313 121.5781,280.8906 Q120.2656,279.2344 120.2656,276.1094 Q120.2656,272.9844 121.5781,271.3281 Q122.9063,269.6719 125.4063,269.6719 Q126.1094,269.6719 126.75,269.8281 Q127.4063,269.9844 127.9688,270.2813 L127.9688,273 Q127.3438,272.4219 126.75,272.1563 Q126.1563,271.875 125.5313,271.875 Q124.1875,271.875 123.5,272.9531 Q122.8125,274.0156 122.8125,276.1094 Q122.8125,278.2031 123.5,279.2813 Q124.1875,280.3438 125.5313,280.3438 Q126.1563,280.3438 126.75,280.0781 Q127.3438,279.7969 127.9688,279.2188 L127.9688,281.9375 Z " fill="#000000"/><text fill="#000000" font-family="sans-serif" font-size="14" lengthAdjust="spacing" textLength="33" x="139" y="281.1436">Turn</text><line style="stroke:#181818;stroke-width:0.5;" x1="111" x2="174" y1="292.2969" y2="292.2969"/><line style="stroke:#181818;stroke-width:0.5;" x1="111" x2="174" y1="300.2969" y2="300.2969"/></g><!--class Result--><g id="elem_Result"><rect codeLine="7" fill="#F1F1F1" height="48" id="Result" rx="2.5" ry="2.5" style="stroke:#181818;stroke-width:0.5;" width="76" x="168.5" y="152.2969"/><ellipse cx="183.5" cy="168.2969" fill="#ADD1B2" rx="11" ry="11" style="stroke:#181818;stroke-width:1.0;"/><path d="M186.4688,173.9375 Q185.8906,174.2344 185.25,174.375 Q184.6094,174.5313 183.9063,174.5313 Q181.4063,174.5313 180.0781,172.8906 Q178.7656,171.2344 178.7656,168.1094 Q178.7656,164.9844 180.0781,163.3281 Q181.4063,161.6719 183.9063,161.6719 Q184.6094,161.6719 185.25,161.8281 Q185.9063,161.9844 186.4688,162.2813 L186.4688,165 Q185.8438,164.4219 185.25,164.1563 Q184.6563,163.875 184.0313,163.875 Q182.6875,163.875 182,164.9531 Q181.3125,166.0156 181.3125,168.1094 Q181.3125,170.2031 182,171.2813 Q182.6875,172.3438 184.0313,172.3438 Q184.6563,172.3438 185.25,172.0781 Q185.8438,171.7969 186.4688,171.2188 L186.4688,173.9375 Z " fill="#000000"/><text fill="#000000" font-family="sans-serif" font-size="14" lengthAdjust="spacing" textLength="44" x="197.5" y="173.1436">Result</text><line style="stroke:#181818;stroke-width:0.5;" x1="169.5" x2="243.5" y1="184.2969" y2="184.2969"/><line style="stroke:#181818;stroke-width:0.5;" x1="169.5" x2="243.5" y1="192.2969" y2="192.2969"/></g><!--reverse link Game to Board--><g id="link_Game_Board"><path codeLine="8" d="M107.52,105.4969 C92.83,172.1069 61.91,312.3569 49.66,367.9169 " fill="none" id="Game-backto-Board" style="stroke:#181818;stroke-width:1.0;"/><polygon fill="#181818" points="110.39,92.4569,105.192,97.455,107.8064,104.1754,113.0044,99.1774,110.39,92.4569" style="stroke:#181818;stroke-width:1.0;"/></g><!--reverse link Game to Turn--><g id="link_Game_Turn"><path codeLine="9" d="M120.07,105.5569 C125.64,149.6569 134.87,222.8069 139.56,260.0169 " fill="none" id="Game-backto-Turn" style="stroke:#181818;stroke-width:1.0;"/><polygon fill="#181818" points="118.44,92.6069,115.223,99.0606,119.943,104.5124,123.16,98.0586,118.44,92.6069" style="stroke:#181818;stroke-width:1.0;"/></g><!--reverse link Game to Result--><g id="link_Game_Result"><path codeLine="10" d="M143.9,102.3769 C157.72,118.4669 173.99,137.4269 186.48,151.9769 " fill="none" id="Game-backto-Result" style="stroke:#181818;stroke-width:1.0;"/><polygon fill="#181818" points="135.25,92.2969,136.122,99.4551,143.0649,101.4033,142.1929,94.2451,135.25,92.2969" style="stroke:#181818;stroke-width:1.0;"/></g><!--reverse link Result to Turn--><g id="link_Result_Turn"><path codeLine="11" d="M185.69,211.7669 C176.16,227.5469 165.12,245.8369 156.58,259.9769 " fill="none" id="Result-backto-Turn" style="stroke:#181818;stroke-width:1.0;"/><polygon fill="#181818" points="192.61,200.2969,186.0855,203.3679,186.4109,210.5716,192.9353,207.5006,192.61,200.2969" style="stroke:#181818;stroke-width:1.0;"/></g><!--reverse link Turn to Player--><g id="link_Turn_Player"><path codeLine="12" d="M146.96,321.6369 C148.84,336.9769 150.97,354.3969 152.64,367.9769 " fill="none" id="Turn-backto-Player" style="stroke:#181818;stroke-width:1.0;"/><polygon fill="#181818" points="145.32,308.2969,142.0819,314.7401,146.7841,320.2072,150.0221,313.764,145.32,308.2969" style="stroke:#181818;stroke-width:1.0;"/></g><!--reverse link Turn to Board--><g id="link_Turn_Board"><path codeLine="13" d="M112.34,317.9269 C97.37,334.1069 79.64,353.2869 66.06,367.9769 " fill="none" id="Turn-backto-Board" style="stroke:#181818;stroke-width:1.0;"/><polygon fill="#181818" points="121.24,308.2969,114.2306,309.9904,113.0979,317.112,120.1073,315.4185,121.24,308.2969" style="stroke:#181818;stroke-width:1.0;"/></g><!--SRC=[AyxEp2j8B4hCLKZEIImkTYmfASfCAYr9zKpEpmlEh4fLCE0goIp9ILLmpi_BIqqkKJ1HS4_CJUK2gqPc1kGaLgOMGJbE-Ob5AL1sI6bH7fGPb5fScbF21TAbeAMh2rK6vu9LmdbGnH0A8GyYm3oeXN0-s300]--></g></svg>