<?xml version="1.0" encoding="us-ascii" standalone="no"?><svg xmlns="http://www.w3.org/2000/svg" xmlns:xlink="http://www.w3.org/1999/xlink" contentStyleType="text/css" height="430px" preserveAspectRatio="none" style="width:259px;height:430px;background:#FFFFFF;" version="1.1" viewBox="0 0 259 430" width="259px" zoomAndPan="magnify"><defs><filter height="300%" id="f9mgk2h9xfoca" width="300%" x="-1" y="-1"><feGaussianBlur result="blurOut" stdDeviation="2.0"/><feColorMatrix in="blurOut" result="blurOut2" type="matrix" values="0 0 0 0 0 0 0 0 0 0 0 0 0 0 0 0 0 0 .4 0"/><feOffset dx="4.0" dy="4.0" in="blurOut2" result="blurOut3"/><feBlend in="SourceGraphic" in2="blurOut3" mode="normal"/></filter></defs><g><text fill="#000000" font-family="sans-serif" font-size="14" font-weight="bold" lengthAdjust="spacing" textLength="132" x="56.75" y="22.9951">Connect 4 Game</text><!--class Game--><g id="elem_Game"><rect codeLine="3" fill="#FEFECE" filter="url(#f9mgk2h9xfoca)" height="48" id="Game" style="stroke:#A80036;stroke-width:1.0;" width="74" x="78" y="44.2969"/><ellipse cx="93" cy="60.2969" fill="#ADD1B2" rx="11" ry="11" style="stroke:#A80036;stroke-width:1.0;"/><path d="M95.3438,55.9688 C94.4063,55.5313 93.8125,55.3906 92.9375,55.3906 C90.3125,55.3906 88.3125,57.4688 88.3125,60.1875 L88.3125,61.3125 C88.3125,63.8906 90.4219,65.7813 93.3125,65.7813 C94.5313,65.7813 95.6875,65.4844 96.4375,64.9375 C97.0156,64.5313 97.3438,64.0781 97.3438,63.6875 C97.3438,63.2344 96.9531,62.8438 96.4844,62.8438 C96.2656,62.8438 96.0625,62.9219 95.875,63.1094 C95.4219,63.5938 95.4219,63.5938 95.2344,63.6875 C94.8125,63.9531 94.125,64.0781 93.3594,64.0781 C91.3125,64.0781 90.0156,62.9844 90.0156,61.2813 L90.0156,60.1875 C90.0156,58.4063 91.2656,57.0938 93,57.0938 C93.5781,57.0938 94.1875,57.25 94.6563,57.5 C95.1406,57.7813 95.3125,58 95.4063,58.4063 C95.4688,58.8125 95.5,58.9375 95.6406,59.0625 C95.7813,59.2031 96.0156,59.3125 96.2344,59.3125 C96.5,59.3125 96.7656,59.1719 96.9375,58.9531 C97.0469,58.7969 97.0781,58.6094 97.0781,58.1875 L97.0781,56.7656 C97.0781,56.3281 97.0625,56.2031 96.9688,56.0469 C96.8125,55.7813 96.5313,55.6406 96.2344,55.6406 C95.9375,55.6406 95.7344,55.7344 95.5156,56.0469 L95.3438,55.9688 Z " fill="#000000"/><text fill="#000000" font-family="sans-serif" font-size="14" lengthAdjust="spacing" textLength="42" x="107" y="65.1436">Game</text><line style="stroke:#A80036;stroke-width:1.0;" x1="79" x2="151" y1="76.2969" y2="76.2969"/><line style="stroke:#A80036;stroke-width:1.0;" x1="79" x2="151" y1="84.2969" y2="84.2969"/></g><!--class Player--><g id="elem_Player"><rect codeLine="4" fill="#FEFECE" filter="url(#f9mgk2h9xfoca)" height="48" id="Player" style="stroke:#A80036;stroke-width:1.0;" width="76" x="116" y="368.2969"/><ellipse cx="131" cy="384.2969" fill="#ADD1B2" rx="11" ry="11" style="stroke:#A80036;stroke-width:1.0;"/><path d="M133.3438,379.9688 C132.4063,379.5313 131.8125,379.3906 130.9375,379.3906 C128.3125,379.3906 126.3125,381.4688 126.3125,384.1875 L126.3125,385.3125 C126.3125,387.8906 128.4219,389.7813 131.3125,389.7813 C132.5313,389.7813 133.6875,389.4844 134.4375,388.9375 C135.0156,388.5313 135.3438,388.0781 135.3438,387.6875 C135.3438,387.2344 134.9531,386.8438 134.4844,386.8438 C134.2656,386.8438 134.0625,386.9219 133.875,387.1094 C133.4219,387.5938 133.4219,387.5938 133.2344,387.6875 C132.8125,387.9531 132.125,388.0781 131.3594,388.0781 C129.3125,388.0781 128.0156,386.9844 128.0156,385.2813 L128.0156,384.1875 C128.0156,382.4063 129.2656,381.0938 131,381.0938 C131.5781,381.0938 132.1875,381.25 132.6563,381.5 C133.1406,381.7813 133.3125,382 133.4063,382.4063 C133.4688,382.8125 133.5,382.9375 133.6406,383.0625 C133.7813,383.2031 134.0156,383.3125 134.2344,383.3125 C134.5,383.3125 134.7656,383.1719 134.9375,382.9531 C135.0469,382.7969 135.0781,382.6094 135.0781,382.1875 L135.0781,380.7656 C135.0781,380.3281 135.0625,380.2031 134.9688,380.0469 C134.8125,379.7813 134.5313,379.6406 134.2344,379.6406 C133.9375,379.6406 133.7344,379.7344 133.5156,380.0469 L133.3438,379.9688 Z " fill="#000000"/><text fill="#000000" font-family="sans-serif" font-size="14" lengthAdjust="spacing" textLength="44" x="145" y="389.1436">Player</text><line style="stroke:#A80036;stroke-width:1.0;" x1="117" x2="191" y1="400.2969" y2="400.2969"/><line style="stroke:#A80036;stroke-width:1.0;" x1="117" x2="191" y1="408.2969" y2="408.2969"/></g><!--class Board--><g id="elem_Board"><rect codeLine="5" fill="#FEFECE" filter="url(#f9mgk2h9xfoca)" height="48" id="Board" style="stroke:#A80036;stroke-width:1.0;" width="74" x="7" y="368.2969"/><ellipse cx="22" cy="384.2969" fill="#ADD1B2" rx="11" ry="11" style="stroke:#A80036;stroke-width:1.0;"/><path d="M24.3438,379.9688 C23.4063,379.5313 22.8125,379.3906 21.9375,379.3906 C19.3125,379.3906 17.3125,381.4688 17.3125,384.1875 L17.3125,385.3125 C17.3125,387.8906 19.4219,389.7813 22.3125,389.7813 C23.5313,389.7813 24.6875,389.4844 25.4375,388.9375 C26.0156,388.5313 26.3438,388.0781 26.3438,387.6875 C26.3438,387.2344 25.9531,386.8438 25.4844,386.8438 C25.2656,386.8438 25.0625,386.9219 24.875,387.1094 C24.4219,387.5938 24.4219,387.5938 24.2344,387.6875 C23.8125,387.9531 23.125,388.0781 22.3594,388.0781 C20.3125,388.0781 19.0156,386.9844 19.0156,385.2813 L19.0156,384.1875 C19.0156,382.4063 20.2656,381.0938 22,381.0938 C22.5781,381.0938 23.1875,381.25 23.6563,381.5 C24.1406,381.7813 24.3125,382 24.4063,382.4063 C24.4688,382.8125 24.5,382.9375 24.6406,383.0625 C24.7813,383.2031 25.0156,383.3125 25.2344,383.3125 C25.5,383.3125 25.7656,383.1719 25.9375,382.9531 C26.0469,382.7969 26.0781,382.6094 26.0781,382.1875 L26.0781,380.7656 C26.0781,380.3281 26.0625,380.2031 25.9688,380.0469 C25.8125,379.7813 25.5313,379.6406 25.2344,379.6406 C24.9375,379.6406 24.7344,379.7344 24.5156,380.0469 L24.3438,379.9688 Z " fill="#000000"/><text fill="#000000" font-family="sans-serif" font-size="14" lengthAdjust="spacing" textLength="42" x="36" y="389.1436">Board</text><line style="stroke:#A80036;stroke-width:1.0;" x1="8" x2="80" y1="400.2969" y2="400.2969"/><line style="stroke:#A80036;stroke-width:1.0;" x1="8" x2="80" y1="408.2969" y2="408.2969"/></g><!--class Turn--><g id="elem_Turn"><rect codeLine="6" fill="#FEFECE" filter="url(#f9mgk2h9xfoca)" height="48" id="Turn" style="stroke:#A80036;stroke-width:1.0;" width="64" x="109" y="260.2969"/><ellipse cx="124" cy="276.2969" fill="#ADD1B2" rx="11" ry="11" style="stroke:#A80036;stroke-width:1.0;"/><path d="M126.3438,271.9688 C125.4063,271.5313 124.8125,271.3906 123.9375,271.3906 C121.3125,271.3906 119.3125,273.4688 119.3125,276.1875 L119.3125,277.3125 C119.3125,279.8906 121.4219,281.7813 124.3125,281.7813 C125.5313,281.7813 126.6875,281.4844 127.4375,280.9375 C128.0156,280.5313 128.3438,280.0781 128.3438,279.6875 C128.3438,279.2344 127.9531,278.8438 127.4844,278.8438 C127.2656,278.8438 127.0625,278.9219 126.875,279.1094 C126.4219,279.5938 126.4219,279.5938 126.2344,279.6875 C125.8125,279.9531 125.125,280.0781 124.3594,280.0781 C122.3125,280.0781 121.0156,278.9844 121.0156,277.2813 L121.0156,276.1875 C121.0156,274.4063 122.2656,273.0938 124,273.0938 C124.5781,273.0938 125.1875,273.25 125.6563,273.5 C126.1406,273.7813 126.3125,274 126.4063,274.4063 C126.4688,274.8125 126.5,274.9375 126.6406,275.0625 C126.7813,275.2031 127.0156,275.3125 127.2344,275.3125 C127.5,275.3125 127.7656,275.1719 127.9375,274.9531 C128.0469,274.7969 128.0781,274.6094 128.0781,274.1875 L128.0781,272.7656 C128.0781,272.3281 128.0625,272.2031 127.9688,272.0469 C127.8125,271.7813 127.5313,271.6406 127.2344,271.6406 C126.9375,271.6406 126.7344,271.7344 126.5156,272.0469 L126.3438,271.9688 Z " fill="#000000"/><text fill="#000000" font-family="sans-serif" font-size="14" lengthAdjust="spacing" textLength="32" x="138" y="281.1436">Turn</text><line style="stroke:#A80036;stroke-width:1.0;" x1="110" x2="172" y1="292.2969" y2="292.2969"/><line style="stroke:#A80036;stroke-width:1.0;" x1="110" x2="172" y1="300.2969" y2="300.2969"/></g><!--class Result--><g id="elem_Result"><rect codeLine="7" fill="#FEFECE" filter="url(#f9mgk2h9xfoca)" height="48" id="Result" style="stroke:#A80036;stroke-width:1.0;" width="77" x="168.5" y="152.2969"/><ellipse cx="183.5" cy="168.2969" fill="#ADD1B2" rx="11" ry="11" style="stroke:#A80036;stroke-width:1.0;"/><path d="M185.8438,163.9688 C184.9063,163.5313 184.3125,163.3906 183.4375,163.3906 C180.8125,163.3906 178.8125,165.4688 178.8125,168.1875 L178.8125,169.3125 C178.8125,171.8906 180.9219,173.7813 183.8125,173.7813 C185.0313,173.7813 186.1875,173.4844 186.9375,172.9375 C187.5156,172.5313 187.8438,172.0781 187.8438,171.6875 C187.8438,171.2344 187.4531,170.8438 186.9844,170.8438 C186.7656,170.8438 186.5625,170.9219 186.375,171.1094 C185.9219,171.5938 185.9219,171.5938 185.7344,171.6875 C185.3125,171.9531 184.625,172.0781 183.8594,172.0781 C181.8125,172.0781 180.5156,170.9844 180.5156,169.2813 L180.5156,168.1875 C180.5156,166.4063 181.7656,165.0938 183.5,165.0938 C184.0781,165.0938 184.6875,165.25 185.1563,165.5 C185.6406,165.7813 185.8125,166 185.9063,166.4063 C185.9688,166.8125 186,166.9375 186.1406,167.0625 C186.2813,167.2031 186.5156,167.3125 186.7344,167.3125 C187,167.3125 187.2656,167.1719 187.4375,166.9531 C187.5469,166.7969 187.5781,166.6094 187.5781,166.1875 L187.5781,164.7656 C187.5781,164.3281 187.5625,164.2031 187.4688,164.0469 C187.3125,163.7813 187.0313,163.6406 186.7344,163.6406 C186.4375,163.6406 186.2344,163.7344 186.0156,164.0469 L185.8438,163.9688 Z " fill="#000000"/><text fill="#000000" font-family="sans-serif" font-size="14" lengthAdjust="spacing" textLength="45" x="197.5" y="173.1436">Result</text><line style="stroke:#A80036;stroke-width:1.0;" x1="169.5" x2="244.5" y1="184.2969" y2="184.2969"/><line style="stroke:#A80036;stroke-width:1.0;" x1="169.5" x2="244.5" y1="192.2969" y2="192.2969"/></g><!--reverse link Game to Board--><g id="link_Game_Board"><path codeLine="8" d="M107.3101,104.1724 C94.2417,163.4404 62.2772,308.4059 49.1553,367.9166 " fill="none" id="Game-backto-Board" style="stroke:#A80036;stroke-width:1.0;"/><polygon fill="#A80036" points="109.894,92.4539,104.6959,97.4518,107.3101,104.1724,112.5082,99.1744,109.894,92.4539" style="stroke:#A80036;stroke-width:1.0;"/></g><!--reverse link Game to Turn--><g id="link_Game_Turn"><path codeLine="9" d="M119.2792,104.5183 C124.2802,145.6833 133.173,218.8719 138.172,260.0169 " fill="none" id="Game-backto-Turn" style="stroke:#A80036;stroke-width:1.0;"/><polygon fill="#A80036" points="117.832,92.6059,114.5848,99.0445,119.2792,104.5183,122.5264,98.0797,117.832,92.6059" style="stroke:#A80036;stroke-width:1.0;"/></g><!--reverse link Game to Result--><g id="link_Game_Result"><path codeLine="10" d="M142.8284,101.3597 C158.1534,119.0177 171.364,134.2379 186.759,151.9749 " fill="none" id="Game-backto-Result" style="stroke:#A80036;stroke-width:1.0;"/><polygon fill="#A80036" points="134.963,92.2969,135.8748,99.4501,142.8284,101.3597,141.9167,94.2065,134.963,92.2969" style="stroke:#A80036;stroke-width:1.0;"/></g><!--reverse link Result to Turn--><g id="link_Result_Turn"><path codeLine="11" d="M186.3361,210.4835 C175.3411,228.1415 166.565,242.2379 155.521,259.9749 " fill="none" id="Result-backto-Turn" style="stroke:#A80036;stroke-width:1.0;"/><polygon fill="#A80036" points="192.679,200.2969,186.112,203.2759,186.3361,210.4835,192.9031,207.5045,192.679,200.2969" style="stroke:#A80036;stroke-width:1.0;"/></g><!--reverse link Turn to Player--><g id="link_Turn_Player"><path codeLine="12" d="M145.2813,320.2077 C147.4463,337.8661 148.964,350.2377 151.14,367.9753 " fill="none" id="Turn-backto-Player" style="stroke:#A80036;stroke-width:1.0;"/><polygon fill="#A80036" points="143.821,308.2969,140.5809,314.7391,145.2813,320.2077,148.5214,313.7655,143.821,308.2969" style="stroke:#A80036;stroke-width:1.0;"/></g><!--reverse link Turn to Board--><g id="link_Turn_Board"><path codeLine="13" d="M111.8511,317.1499 C95.6928,334.8083 81.5731,350.2377 65.3414,367.9753 " fill="none" id="Turn-backto-Board" style="stroke:#A80036;stroke-width:1.0;"/><polygon fill="#A80036" points="119.952,308.2969,112.9506,310.0231,111.8511,317.1499,118.8525,315.4237,119.952,308.2969" style="stroke:#A80036;stroke-width:1.0;"/></g><!--SRC=[AyxEp5CeoYzEvIh9BCb9LN3EpyjBJIvHC55mJynDvKhEIImkHcO6v2HMfXP1EKxvYKKfK7P8QL4Ub1cKMboQKy85qgMWfQiBLGRdWbN2UL3540eX3oB0FAY5S3xOC000]--></g></svg>